<?xml version="1.0" encoding="UTF-8" standalone="no"?>
<svg
   width="1080"
   height="1080"
   overflow="hidden"
   version="1.1"
   id="svg2582"
   sodipodi:docname="igf-04-connected-communities.svg"
   inkscape:version="1.2.2 (b0a84865, 2022-12-01)"
   xmlns:inkscape="http://www.inkscape.org/namespaces/inkscape"
   xmlns:sodipodi="http://sodipodi.sourceforge.net/DTD/sodipodi-0.dtd"
   xmlns="http://www.w3.org/2000/svg"
   xmlns:svg="http://www.w3.org/2000/svg">
  <sodipodi:namedview
     id="namedview2584"
     pagecolor="#ffffff"
     bordercolor="#000000"
     borderopacity="0.25"
     inkscape:showpageshadow="2"
     inkscape:pageopacity="0.0"
     inkscape:pagecheckerboard="0"
     inkscape:deskcolor="#d1d1d1"
     showgrid="false"
     inkscape:zoom="0.21851852"
     inkscape:cx="542.28814"
     inkscape:cy="540"
     inkscape:window-width="1309"
     inkscape:window-height="456"
     inkscape:window-x="0"
     inkscape:window-y="37"
     inkscape:window-maximized="0"
     inkscape:current-layer="g2580" />
  <defs
     id="defs2166">
    <clipPath
       id="clip0">
      <rect
         x="0"
         y="0"
         width="1080"
         height="1080"
         id="rect2156" />
    </clipPath>
    <radialGradient
       cx="4924426"
       cy="4924426"
       r="6964188"
       fx="4924425"
       fy="4924425"
       gradientUnits="userSpaceOnUse"
       spreadMethod="pad"
       id="fill1"
       gradientTransform="matrix(0.000104987 0 0 0.000104987 28 20)">
      <stop
         offset="0"
         stop-color="#737373"
         id="stop2159" />
      <stop
         offset="0.74"
         stop-color="#F2F2F2"
         id="stop2161" />
      <stop
         offset="1"
         stop-color="#F2F2F2"
         id="stop2163" />
    </radialGradient>
  </defs>
  <g
     clip-path="url(#clip0)"
     id="g2580">
    <path
       d="M28 537C28 251.469 259.469 20 545 20 830.531 20 1062 251.469 1062 537 1062 822.531 830.531 1054 545 1054 259.469 1054 28 822.531 28 537Z"
       stroke="#FFFFFF"
       stroke-width="4"
       stroke-miterlimit="8"
       fill="url(#fill1)"
       fill-rule="evenodd"
       id="path2170" />
    <path
       d="M539.013 290.947C614.916 290.947 686.688 325.454 734.013 384.699L539.013 539.947Z"
       stroke="#F2F2F2"
       stroke-width="4"
       stroke-linejoin="round"
       stroke-miterlimit="10"
       fill="#7F7F7F"
       fill-rule="evenodd"
       id="path2172" />
    <path
       d="M735.469 384.947C782.904 444.288 800.673 521.949 783.743 595.947L540.013 540.449Z"
       stroke="#F2F2F2"
       stroke-width="4"
       stroke-linejoin="round"
       stroke-miterlimit="10"
       fill="#7F7F7F"
       fill-rule="evenodd"
       id="path2174" />
    <path
       d="M784.013 595.518C767.064 669.614 717.225 731.97 648.603 764.947L540.013 539.947Z"
       stroke="#F2F2F2"
       stroke-width="4"
       stroke-linejoin="round"
       stroke-miterlimit="10"
       fill="#7F7F7F"
       fill-rule="evenodd"
       id="path2176" />
    <path
       d="M649.013 765.188C580.448 798.2 500.578 798.2 432.013 765.188L540.513 539.947Z"
       stroke="#F2F2F2"
       stroke-width="4"
       stroke-linejoin="round"
       stroke-miterlimit="10"
       fill="#FC6933"
       fill-rule="evenodd"
       id="path2178" />
    <path
       d="M431.868 764.947C363.527 731.98 313.892 669.614 297.013 595.518L540.013 539.947Z"
       stroke="#F2F2F2"
       stroke-width="4"
       stroke-linejoin="round"
       stroke-miterlimit="10"
       fill="#7F7F7F"
       fill-rule="evenodd"
       id="path2180" />
    <path
       d="M297.258 595.947C280.396 521.95 298.093 444.288 345.339 384.947L540.013 540.448Z"
       stroke="#F2F2F2"
       stroke-width="4"
       stroke-linejoin="round"
       stroke-miterlimit="10"
       fill="#7F7F7F"
       fill-rule="evenodd"
       id="path2182" />
    <path
       d="M345.013 384.699C392.338 325.454 464.11 290.947 540.013 290.947L540.013 539.947Z"
       stroke="#F2F2F2"
       stroke-width="4"
       stroke-linejoin="round"
       stroke-miterlimit="10"
       fill="#7F7F7F"
       fill-rule="evenodd"
       id="path2184" />
    <path
       d="M539.012 317.953C606.351 317.953 670.026 348.58 712.012 401.162L539.012 538.953Z"
       stroke="#F2F2F2"
       stroke-width="4"
       stroke-linejoin="round"
       stroke-miterlimit="10"
       fill="#D9D9D9"
       fill-rule="evenodd"
       id="path2186" />
    <path
       d="M712.794 400.953C754.727 453.545 770.435 522.372 755.468 587.953L540.011 538.768Z"
       stroke="#F2F2F2"
       stroke-width="4"
       stroke-linejoin="round"
       stroke-miterlimit="10"
       fill="#D9D9D9"
       fill-rule="evenodd"
       id="path2188" />
    <path
       d="M756.012 588.35C741.008 654.212 696.888 709.64 636.14 738.953L540.012 538.953Z"
       stroke="#F2F2F2"
       stroke-width="4"
       stroke-linejoin="round"
       stroke-miterlimit="10"
       fill="#D9D9D9"
       fill-rule="evenodd"
       id="path2190" />
    <path
       d="M636.011 738.066C575.345 767.249 504.678 767.249 444.012 738.066L540.011 538.953Z"
       stroke="#F2F2F2"
       stroke-width="4"
       stroke-linejoin="round"
       stroke-miterlimit="10"
       fill="#FC6933"
       fill-rule="evenodd"
       id="path2192" />
    <path
       d="M443.883 738.953C383.135 709.649 339.015 654.212 324.012 588.35L540.012 538.953Z"
       stroke="#F2F2F2"
       stroke-width="4"
       stroke-linejoin="round"
       stroke-miterlimit="10"
       fill="#D9D9D9"
       fill-rule="evenodd"
       id="path2194" />
    <path
       d="M324.554 587.953C309.589 522.372 325.295 453.544 367.228 400.953L540.012 538.767Z"
       stroke="#F2F2F2"
       stroke-width="4"
       stroke-linejoin="round"
       stroke-miterlimit="10"
       fill="#D9D9D9"
       fill-rule="evenodd"
       id="path2196" />
    <path
       d="M367.012 401.162C408.997 348.58 472.672 317.953 540.012 317.953L540.012 538.953Z"
       stroke="#F2F2F2"
       stroke-width="4"
       stroke-linejoin="round"
       stroke-miterlimit="10"
       fill="#D9D9D9"
       fill-rule="evenodd"
       id="path2198" />
    <text
       font-family="DM Sans,DM Sans_MSFontService,sans-serif"
       font-weight="700"
       font-size="21"
       transform="matrix(0.478013 -0.878353 0.878353 0.478013 579.485 434)"
       id="text2200">Inclusive</text>
    <text
       font-family="DM Sans,DM Sans_MSFontService,sans-serif"
       font-weight="700"
       font-size="21"
       transform="matrix(0.478013 -0.878353 0.878353 0.478013 598.895 451)"
       id="text2202">Economy</text>
    <text
       font-family="DM Sans,DM Sans_MSFontService,sans-serif"
       font-weight="700"
       font-size="21"
       transform="matrix(0.988131 -0.153614 0.153614 0.988131 638.217 510)"
       id="text2204">Power and</text>
    <text
       font-family="DM Sans,DM Sans_MSFontService,sans-serif"
       font-weight="700"
       font-size="21"
       transform="matrix(0.988131 -0.153614 0.153614 0.988131 617.19 538)"
       id="text2206">Participation</text>
    <text
       font-family="DM Sans,DM Sans_MSFontService,sans-serif"
       font-weight="700"
       font-size="21"
       transform="matrix(0.815429 0.578857 -0.578857 0.815429 583.77 574)"
       id="text2208">Affordable and</text>
    <text
       font-family="DM Sans,DM Sans_MSFontService,sans-serif"
       font-weight="700"
       font-size="21"
       transform="matrix(0.815429 0.578857 -0.578857 0.815429 598.79 615)"
       id="text2210">Safe Places</text>
    <text
       font-family="DM Sans,DM Sans_MSFontService,sans-serif"
       font-weight="700"
       font-size="21"
       transform="matrix(6.12323e-17 1 -1 6.12323e-17 549.126 632)"
       id="text2212">Connected</text>
    <text
       font-family="DM Sans,DM Sans_MSFontService,sans-serif"
       font-weight="700"
       font-size="21"
       transform="matrix(6.12323e-17 1 -1 6.12323e-17 524.126 609)"
       id="text2214">Communities</text>
    <text
       font-family="DM Sans,DM Sans_MSFontService,sans-serif"
       font-weight="700"
       font-size="21"
       transform="matrix(0.753972 -0.656907 0.656907 0.753972 374.711 668)"
       id="text2216">Education</text>
    <text
       font-family="DM Sans,DM Sans_MSFontService,sans-serif"
       font-weight="700"
       font-size="21"
       transform="matrix(0.753972 -0.656907 0.656907 0.753972 391.134 687)"
       id="text2218">and Learning</text>
    <text
       font-family="DM Sans,DM Sans_MSFontService,sans-serif"
       font-weight="700"
       font-size="21"
       transform="matrix(0.971733 0.236082 -0.236082 0.971733 336.401 486)"
       id="text2220">Health and</text>
    <text
       font-family="DM Sans,DM Sans_MSFontService,sans-serif"
       font-weight="700"
       font-size="21"
       transform="matrix(0.971733 0.236082 -0.236082 0.971733 330.499 510)"
       id="text2222">Wellbeing</text>
    <text
       font-family="DM Sans,DM Sans_MSFontService,sans-serif"
       font-weight="700"
       font-size="21"
       transform="matrix(0.494975 0.868907 -0.868907 0.494975 430.572 359)"
       id="text2224">Equality</text>
    <path
       d="M194 540C194 348.909 348.909 194 540 194 731.091 194 886 348.909 886 540 886 731.091 731.091 886 540 886 348.909 886 194 731.091 194 540ZM257.699 540C257.699 695.911 384.089 822.301 540 822.301 695.911 822.301 822.301 695.911 822.301 540 822.301 384.089 695.911 257.699 540 257.699 384.089 257.699 257.699 384.089 257.699 540Z"
       fill="#BFBFBF"
       fill-rule="evenodd"
       id="path2226" />
    <path
       d="M164 540C164 332.341 332.341 164 540 164 747.659 164 916 332.341 916 540 916 747.659 747.659 916 540 916 332.341 916 164 747.659 164 540ZM198.81 540C198.81 728.434 351.566 881.19 540 881.19 728.434 881.19 881.19 728.434 881.19 540 881.19 351.566 728.434 198.81 540 198.81 351.566 198.81 198.81 351.566 198.81 540Z"
       fill="#737373"
       fill-rule="evenodd"
       id="path2228" />
    <path
       d="M257 540C257 383.703 383.703 257 540 257 696.297 257 823 383.703 823 540 823 696.297 696.297 823 540 823 383.703 823 257 696.297 257 540ZM291.86 540C291.86 677.044 402.956 788.14 540 788.14 677.044 788.14 788.14 677.044 788.14 540 788.14 402.956 677.044 291.86 540 291.86 402.956 291.86 291.86 402.956 291.86 540Z"
       fill="#417D47"
       fill-rule="evenodd"
       id="path2230" />
    <path
       d="M242.127 432.556 248.574 435.123 250.182 431.084C250.661 429.88 250.751 428.841 250.45 427.965 250.15 427.09 249.498 426.453 248.494 426.053 247.508 425.66 246.581 425.688 245.714 426.138 244.847 426.587 244.181 427.397 243.715 428.567ZM234.526 429.529 240.446 431.887 242.004 427.973C242.45 426.853 242.53 425.887 242.243 425.075 241.956 424.263 241.344 423.671 240.408 423.298 239.521 422.945 238.692 422.959 237.921 423.34 237.149 423.72 236.527 424.504 236.054 425.691ZM231.931 430.937 234.388 424.767C234.881 423.529 235.486 422.583 236.201 421.928 236.917 421.274 237.694 420.881 238.531 420.749 239.368 420.617 240.205 420.718 241.041 421.051 242.178 421.504 242.951 422.165 243.36 423.035 243.77 423.905 243.93 424.817 243.841 425.77 244.218 425.164 244.713 424.674 245.328 424.298 245.942 423.923 246.612 423.7 247.337 423.631 248.062 423.561 248.785 423.669 249.504 423.956 250.39 424.309 251.11 424.847 251.665 425.572 252.219 426.296 252.54 427.17 252.626 428.193 252.713 429.215 252.514 430.337 252.027 431.558L249.49 437.929Z"
       fill-rule="evenodd"
       id="path2232" />
    <text
       fill="#000000"
       fill-opacity="0"
       font-family="Arial,Arial_MSFontService,sans-serif"
       font-size="17.2361"
       x="231.931"
       y="435.775"
       id="text2234">B</text>
    <path
       d="M243.064 418.115 244 416.049 250.91 419.18C253.452 420.332 255.194 419.867 256.138 417.785 256.621 416.719 256.639 415.665 256.192 414.623 255.746 413.58 254.817 412.74 253.407 412.101L247.087 409.237 248.023 407.171 260.221 412.698 259.374 414.568 257.118 413.723C257.718 414.45 258.07 415.286 258.175 416.233 258.28 417.179 258.12 418.12 257.697 419.054 257.043 420.497 256.084 421.446 254.821 421.901 253.557 422.356 252.016 422.171 250.196 421.346Z"
       fill-rule="evenodd"
       id="path2236" />
    <text
       fill="#000000"
       fill-opacity="0"
       font-family="Arial,Arial_MSFontService,sans-serif"
       font-size="14.9728"
       x="243.064"
       y="420.272"
       id="text2238">u</text>
    <path
       d="M249.89 403.405 250.893 401.371 262.905 407.29 261.903 409.324ZM244.966 399.715C245.157 399.327 245.449 399.06 245.843 398.913 246.236 398.766 246.627 398.787 247.015 398.978 247.418 399.177 247.686 399.48 247.817 399.885 247.948 400.291 247.918 400.688 247.727 401.075 247.528 401.479 247.23 401.748 246.832 401.883 246.435 402.019 246.034 401.987 245.63 401.788 245.243 401.597 244.985 401.305 244.858 400.911 244.731 400.517 244.767 400.119 244.966 399.715Z"
       fill-rule="evenodd"
       id="path2240" />
    <text
       fill="#000000"
       fill-opacity="0"
       font-family="Arial,Arial_MSFontService,sans-serif"
       font-size="10.5076"
       x="244.784"
       y="408.011"
       id="text2242">i</text>
    <path
       d="M247.319 395.026 248.359 393.01 265.636 401.921 264.597 403.937Z"
       fill-rule="evenodd"
       id="path2244" />
    <text
       fill="#000000"
       fill-opacity="0"
       font-family="Arial,Arial_MSFontService,sans-serif"
       font-size="10.9271"
       x="247.319"
       y="402.571"
       id="text2246">l</text>
    <path
       d="M260.11 387.432C259.68 388.201 259.48 388.992 259.511 389.803 259.541 390.615 259.792 391.374 260.263 392.081 260.734 392.787 261.409 393.387 262.289 393.879 263.168 394.371 264.032 394.633 264.881 394.665 265.73 394.696 266.508 394.513 267.216 394.114 267.923 393.716 268.492 393.132 268.923 392.362 269.362 391.577 269.567 390.779 269.536 389.967 269.505 389.156 269.254 388.397 268.784 387.69 268.313 386.983 267.638 386.384 266.758 385.891 265.878 385.399 265.014 385.137 264.165 385.106 263.317 385.075 262.538 385.258 261.831 385.656 261.123 386.055 260.55 386.646 260.11 387.432ZM255.676 379.598 256.783 377.619 273.748 387.111 272.746 388.902 270.709 388.009C271.063 388.703 271.271 389.53 271.331 390.492 271.391 391.454 271.122 392.469 270.524 393.537 269.874 394.699 269.038 395.567 268.016 396.14 266.994 396.713 265.886 396.98 264.691 396.94 263.496 396.901 262.309 396.552 261.131 395.892 259.953 395.233 259.041 394.403 258.394 393.402 257.748 392.401 257.403 391.321 257.36 390.163 257.318 389.004 257.626 387.836 258.285 386.658 258.821 385.7 259.492 384.961 260.298 384.443 261.104 383.924 261.974 383.658 262.91 383.645Z"
       fill-rule="evenodd"
       id="path2248" />
    <text
       fill="#000000"
       fill-opacity="0"
       font-family="Arial,Arial_MSFontService,sans-serif"
       font-size="19.3253"
       x="255.676"
       y="394.528"
       id="text2250">d</text>
    <path
       d="M264.155 377.172 265.33 375.232 276.785 382.17 275.61 384.11ZM259.57 373.069C259.793 372.699 260.108 372.458 260.513 372.346 260.917 372.233 261.305 372.289 261.674 372.513 262.059 372.746 262.299 373.07 262.395 373.486 262.49 373.901 262.426 374.294 262.202 374.663 261.969 375.048 261.649 375.291 261.241 375.391 260.833 375.491 260.437 375.425 260.052 375.191 259.682 374.968 259.451 374.654 259.359 374.251 259.266 373.848 259.337 373.454 259.57 373.069Z"
       fill-rule="evenodd"
       id="path2252" />
    <text
       fill="#000000"
       fill-opacity="0"
       font-family="Arial,Arial_MSFontService,sans-serif"
       font-size="11.8204"
       x="259.319"
       y="382.632"
       id="text2254">i</text>
    <path
       d="M270.924 365.785C271.788 364.458 272.882 363.661 274.204 363.395 275.527 363.128 277.026 363.54 278.7 364.63L285.262 368.903 284.024 370.803 277.666 366.664C275.328 365.141 273.53 365.345 272.273 367.276 271.645 368.241 271.472 369.273 271.756 370.371 272.04 371.469 272.831 372.44 274.128 373.285L279.943 377.071 278.705 378.971 267.483 371.664 268.603 369.944 270.69 371.142C270.217 370.319 269.997 369.435 270.032 368.491 270.067 367.547 270.364 366.645 270.924 365.785Z"
       fill-rule="evenodd"
       id="path2256" />
    <text
       fill="#000000"
       fill-opacity="0"
       font-family="Arial,Arial_MSFontService,sans-serif"
       font-size="15.6554"
       x="267.483"
       y="377.015"
       id="text2258">n</text>
    <path
       d="M288.27 363.272C288.161 364.103 288.225 364.747 288.462 365.205 288.698 365.662 288.963 365.996 289.255 366.206 289.987 366.731 290.752 366.815 291.551 366.457 292.35 366.1 293.08 365.461 293.741 364.54 294.392 363.633 294.716 362.764 294.715 361.932 294.714 361.1 294.384 360.448 293.726 359.976 293.258 359.64 292.716 359.539 292.099 359.673 291.483 359.806 290.778 360.364 289.985 361.346 289.349 362.108 288.778 362.75 288.27 363.272ZM280.542 355.101C279.975 355.891 279.727 356.66 279.799 357.41 279.871 358.159 280.279 358.801 281.025 359.336 281.786 359.882 282.532 360.069 283.265 359.897 283.998 359.725 284.647 359.244 285.214 358.454 285.77 357.679 286.013 356.917 285.941 356.168 285.869 355.418 285.453 354.771 284.693 354.225 283.947 353.69 283.208 353.508 282.475 353.68 281.742 353.852 281.098 354.326 280.542 355.101ZM279.006 353.999C279.457 353.37 279.954 352.863 280.497 352.477L283.378 348.463 284.76 349.454 283.384 351.557C284.302 351.574 285.164 351.871 285.968 352.448 286.684 352.962 287.212 353.601 287.55 354.365 287.889 355.128 288.001 355.951 287.889 356.834 287.776 357.717 287.389 358.619 286.728 359.54 286.287 360.154 285.802 360.66 285.274 361.056L285.518 362.893C285.751 362.816 285.994 362.686 286.247 362.502 286.501 362.318 286.823 362.024 287.214 361.617 287.605 361.211 288.131 360.625 288.792 359.859 289.944 358.47 291.031 357.665 292.052 357.446 293.074 357.226 294.045 357.447 294.967 358.108 295.596 358.559 296.072 359.161 296.396 359.914 296.719 360.667 296.81 361.53 296.666 362.501 296.523 363.473 296.052 364.514 295.255 365.626 294.552 366.606 293.799 367.384 292.998 367.961 292.196 368.538 291.383 368.852 290.56 368.903 289.736 368.955 288.93 368.697 288.14 368.131 287.731 367.837 287.367 367.41 287.049 366.849 286.731 366.289 286.575 365.557 286.582 364.653 286.219 364.88 285.88 365.052 285.563 365.168 285.247 365.285 284.926 365.37 284.599 365.424L284.095 365.062 283.59 361.875C282.24 362.213 280.965 361.952 279.766 361.091 279.049 360.577 278.519 359.942 278.176 359.186 277.832 358.43 277.719 357.606 277.837 356.716 277.955 355.826 278.345 354.921 279.006 353.999Z"
       fill-rule="evenodd"
       id="path2260" />
    <text
       fill="#000000"
       fill-opacity="0"
       font-family="Arial,Arial_MSFontService,sans-serif"
       font-size="20.4471"
       x="277.792"
       y="366.354"
       id="text2262">g</text>
    <path
       d="M298.469 340.801C297.623 341.83 297.204 342.702 297.21 343.417 297.216 344.133 297.483 344.708 298.011 345.142 298.554 345.588 299.151 345.747 299.804 345.619 300.456 345.492 301.08 345.066 301.674 344.343 302.222 343.675 302.52 342.959 302.567 342.193 302.613 341.428 302.461 340.692 302.111 339.984 301.76 339.277 301.279 338.671 300.667 338.169L300.646 338.151ZM292.788 336.062C293.977 334.615 295.257 333.844 296.629 333.749 298.001 333.653 299.326 334.131 300.605 335.182L306.968 340.411 305.682 341.975 303.74 340.554C304.084 341.326 304.229 342.162 304.177 343.062 304.124 343.963 303.709 344.886 302.932 345.831 302.223 346.693 301.489 347.29 300.728 347.62 299.968 347.95 299.23 348.054 298.514 347.932 297.799 347.81 297.156 347.515 296.586 347.046 295.529 346.178 295.047 345.106 295.14 343.831 295.233 342.556 295.85 341.223 296.993 339.832L299.291 337.037 299.165 336.934C298.262 336.191 297.382 335.865 296.528 335.955 295.674 336.045 294.921 336.486 294.269 337.279 293.709 337.96 293.397 338.688 293.332 339.461 293.267 340.235 293.509 340.953 294.06 341.615L292.586 343.409C291.892 342.722 291.468 341.949 291.313 341.088 291.159 340.227 291.215 339.358 291.481 338.482 291.747 337.605 292.182 336.799 292.788 336.062Z"
       fill-rule="evenodd"
       id="path2264" />
    <text
       fill="#000000"
       fill-opacity="0"
       font-family="Arial,Arial_MSFontService,sans-serif"
       font-size="14.2449"
       x="291.228"
       y="346.201"
       id="text2266">a</text>
    <path
       d="M302.462 316.333 303.377 315.34 304.806 316.658 304.129 317.393C303.665 317.896 303.438 318.347 303.448 318.748 303.458 319.149 303.707 319.575 304.197 320.027L305.864 321.564 308.097 319.143 309.507 320.443 307.273 322.864 315.709 330.644 314.171 332.311 305.736 324.531 304.363 326.02 302.954 324.72 304.327 323.232 302.62 321.657C301.667 320.779 301.192 319.9 301.195 319.021 301.197 318.142 301.62 317.246 302.462 316.333Z"
       fill-rule="evenodd"
       id="path2268" />
    <text
       fill="#000000"
       fill-opacity="0"
       font-family="Arial,Arial_MSFontService,sans-serif"
       font-size="16.9705"
       x="301.195"
       y="330.19"
       id="text2270">f</text>
    <path
       d="M318.989 318.085C318.051 319.032 317.552 319.861 317.492 320.574 317.432 321.287 317.644 321.884 318.13 322.366 318.629 322.86 319.209 323.074 319.87 323.007 320.532 322.941 321.192 322.575 321.851 321.91 322.459 321.296 322.822 320.611 322.94 319.853 323.057 319.095 322.974 318.347 322.691 317.61 322.407 316.874 321.984 316.226 321.422 315.669L321.403 315.65ZM313.772 312.84C315.09 311.51 316.436 310.861 317.811 310.893 319.186 310.925 320.461 311.524 321.638 312.69L327.487 318.486 326.061 319.924 324.26 318.329C324.53 319.13 324.598 319.976 324.462 320.867 324.326 321.759 323.827 322.639 322.966 323.509 322.18 324.301 321.393 324.827 320.605 325.085 319.817 325.343 319.073 325.378 318.372 325.19 317.671 325.003 317.059 324.649 316.534 324.13 315.563 323.167 315.182 322.055 315.393 320.794 315.604 319.533 316.342 318.263 317.609 316.984L320.156 314.414 320.041 314.3C319.21 313.477 318.365 313.07 317.506 313.08 316.647 313.091 315.856 313.46 315.134 314.189 314.513 314.815 314.134 315.511 313.998 316.275 313.861 317.039 314.036 317.777 314.523 318.487L312.889 320.137C312.262 319.389 311.911 318.579 311.837 317.707 311.763 316.836 311.9 315.976 312.246 315.128 312.592 314.28 313.101 313.517 313.772 312.84Z"
       fill-rule="evenodd"
       id="path2272" />
    <text
       fill="#000000"
       fill-opacity="0"
       font-family="Arial,Arial_MSFontService,sans-serif"
       font-size="14.4171"
       x="311.818"
       y="323.507"
       id="text2274">a</text>
    <path
       d="M320.792 306.413 322.44 304.854 331.644 314.582 329.996 316.141ZM317.459 301.24C317.773 300.943 318.14 300.794 318.56 300.793 318.981 300.792 319.339 300.949 319.636 301.262 319.945 301.589 320.091 301.966 320.073 302.392 320.055 302.818 319.889 303.179 319.575 303.476 319.248 303.785 318.875 303.934 318.455 303.923 318.035 303.911 317.67 303.742 317.361 303.415 317.064 303.101 316.924 302.738 316.942 302.324 316.96 301.911 317.132 301.55 317.459 301.24Z"
       fill-rule="evenodd"
       id="path2276" />
    <text
       fill="#000000"
       fill-opacity="0"
       font-family="Arial,Arial_MSFontService,sans-serif"
       font-size="15.3476"
       x="316.941"
       y="314.222"
       id="text2278">i</text>
    <path
       d="M330.602 296.973 332.192 298.739 331.73 299.155C331.142 299.684 330.693 300.276 330.385 300.929 330.076 301.582 329.998 302.288 330.149 303.048 330.3 303.808 330.767 304.623 331.55 305.492L336.066 310.509 334.38 312.027 325.421 302.073 326.946 300.7 328.802 302.48C328.52 301.548 328.519 300.605 328.798 299.651 329.078 298.697 329.679 297.804 330.602 296.973Z"
       fill-rule="evenodd"
       id="path2280" />
    <text
       fill="#000000"
       fill-opacity="0"
       font-family="Arial,Arial_MSFontService,sans-serif"
       font-size="15.0534"
       x="325.421"
       y="310.145"
       id="text2282">r</text>
    <path
       d="M338.562 292.735C337.732 293.426 337.205 294.291 336.982 295.332 336.759 296.372 337.003 297.417 337.712 298.466L344.186 293.077C343.373 292.184 342.451 291.723 341.418 291.692 340.386 291.662 339.434 292.009 338.562 292.735ZM337.377 291.227C338.373 290.398 339.422 289.906 340.522 289.751 341.623 289.596 342.672 289.724 343.67 290.134 344.667 290.545 345.517 291.173 346.22 292.017 346.346 292.169 346.47 292.324 346.589 292.482 346.709 292.64 346.85 292.815 347.011 293.009L338.814 299.832C339.512 300.586 340.239 301.087 340.996 301.335 341.753 301.583 342.486 301.635 343.196 301.489 343.906 301.343 344.538 301.039 345.091 300.579 345.811 299.98 346.274 299.313 346.482 298.578 346.69 297.843 346.668 297.1 346.418 296.348L348.14 294.915C348.658 296.099 348.788 297.332 348.53 298.612 348.273 299.892 347.535 301.039 346.318 302.052 345.335 302.87 344.277 303.37 343.142 303.554 342.006 303.738 340.887 303.61 339.783 303.17 338.68 302.731 337.673 301.964 336.763 300.871 335.865 299.792 335.294 298.67 335.049 297.503 334.804 296.337 334.878 295.209 335.272 294.121 335.665 293.032 336.367 292.067 337.377 291.227Z"
       fill-rule="evenodd"
       id="path2284" />
    <text
       fill="#000000"
       fill-opacity="0"
       font-family="Arial,Arial_MSFontService,sans-serif"
       font-size="13.9484"
       x="334.908"
       y="301.892"
       id="text2286">e</text>
    <path
       d="M350.524 280.826 351.971 282.71 351.479 283.089C350.851 283.571 350.358 284.126 350 284.753 349.642 285.38 349.509 286.078 349.6 286.848 349.692 287.617 350.095 288.466 350.807 289.393L354.92 294.746 353.122 296.128 344.962 285.509 346.589 284.258 348.302 286.177C348.093 285.225 348.165 284.285 348.517 283.356 348.87 282.426 349.539 281.583 350.524 280.826Z"
       fill-rule="evenodd"
       id="path2288" />
    <text
       fill="#000000"
       fill-opacity="0"
       font-family="Arial,Arial_MSFontService,sans-serif"
       font-size="15.3013"
       x="344.962"
       y="294.215"
       id="text2290">r</text>
    <path
       d="M358.947 288.26 360.841 286.871 362.474 293.073 361.211 293.999Z"
       fill-rule="evenodd"
       id="path2292" />
    <text
       fill="#000000"
       fill-opacity="0"
       font-family="Arial,Arial_MSFontService,sans-serif"
       font-size="7.12708"
       x="358.947"
       y="293.108"
       id="text2294">,</text>
    <path
       d="M372.344 281.273C371.943 282.008 371.771 282.632 371.827 283.144 371.882 283.657 372.009 284.063 372.206 284.365 372.699 285.118 373.382 285.471 374.256 285.426 375.13 285.381 376.042 285.048 376.991 284.427 377.924 283.816 378.54 283.122 378.839 282.346 379.138 281.569 379.065 280.842 378.621 280.165 378.306 279.683 377.837 279.393 377.213 279.295 376.59 279.198 375.732 279.464 374.638 280.094 373.77 280.576 373.006 280.969 372.344 281.273ZM368.08 270.865C367.267 271.398 366.759 272.026 366.555 272.751 366.352 273.476 366.502 274.222 367.005 274.99 367.517 275.773 368.146 276.217 368.892 276.32 369.637 276.424 370.417 276.209 371.23 275.677 372.028 275.154 372.529 274.531 372.732 273.806 372.935 273.081 372.781 272.327 372.268 271.544 371.765 270.776 371.141 270.341 370.396 270.237 369.65 270.133 368.878 270.343 368.08 270.865ZM367.045 269.284C367.693 268.86 368.339 268.566 368.984 268.402L373.118 265.695 374.05 267.118 372.008 268.584C372.859 268.931 373.556 269.518 374.098 270.346 374.581 271.084 374.843 271.87 374.883 272.705 374.924 273.539 374.732 274.347 374.309 275.13 373.885 275.913 373.199 276.615 372.25 277.236 371.618 277.65 370.984 277.946 370.348 278.126L369.914 279.927C370.159 279.939 370.432 279.905 370.735 279.825 371.038 279.745 371.445 279.587 371.956 279.349 372.467 279.111 373.169 278.754 374.062 278.277 375.637 277.396 376.94 277.038 377.972 277.201 379.004 277.365 379.831 277.921 380.452 278.869 380.876 279.517 381.103 280.25 381.134 281.069 381.164 281.888 380.938 282.725 380.454 283.58 379.97 284.434 379.156 285.236 378.011 285.986 377.002 286.646 376.02 287.101 375.064 287.35 374.108 287.599 373.237 287.6 372.451 287.351 371.664 287.102 371.004 286.571 370.472 285.758 370.196 285.336 370.01 284.807 369.916 284.169 369.821 283.532 369.94 282.793 370.271 281.952 369.851 282.033 369.473 282.071 369.136 282.066 368.799 282.061 368.469 282.024 368.145 281.957L367.805 281.437 368.482 278.283C367.101 278.111 366.006 277.408 365.198 276.173 364.714 275.435 364.449 274.652 364.401 273.823 364.353 272.993 364.544 272.185 364.975 271.397 365.406 270.61 366.096 269.905 367.045 269.284Z"
       fill-rule="evenodd"
       id="path2296" />
    <text
       fill="#000000"
       fill-opacity="0"
       font-family="Arial,Arial_MSFontService,sans-serif"
       font-size="21.8419"
       x="364.394"
       y="284.807"
       id="text2298">g</text>
    <path
       d="M381.526 260.295 382.749 262.333 382.217 262.652C381.538 263.06 380.985 263.555 380.557 264.137 380.13 264.719 379.918 265.397 379.921 266.172 379.925 266.947 380.227 267.836 380.83 268.839L384.304 274.626 382.36 275.793 375.466 264.312 377.225 263.256 378.708 265.357C378.609 264.388 378.788 263.462 379.244 262.579 379.701 261.696 380.462 260.935 381.526 260.295Z"
       fill-rule="evenodd"
       id="path2300" />
    <text
       fill="#000000"
       fill-opacity="0"
       font-family="Arial,Arial_MSFontService,sans-serif"
       font-size="15.4979"
       x="375.466"
       y="273.856"
       id="text2302">r</text>
    <path
       d="M390.165 257.656C389.218 258.174 388.535 258.923 388.116 259.901 387.697 260.879 387.735 261.951 388.229 263.117L395.619 259.073C394.992 258.041 394.176 257.411 393.168 257.182 392.161 256.954 391.16 257.112 390.165 257.656ZM389.292 255.948C390.429 255.326 391.553 255.045 392.662 255.104 393.772 255.164 394.777 255.491 395.677 256.086 396.577 256.681 397.291 257.46 397.818 258.423 397.913 258.597 398.004 258.773 398.091 258.951 398.178 259.129 398.283 259.328 398.404 259.55L389.048 264.669C389.588 265.543 390.205 266.175 390.9 266.564 391.595 266.953 392.305 267.144 393.03 267.138 393.755 267.131 394.433 266.955 395.065 266.609 395.886 266.16 396.469 265.594 396.814 264.913 397.159 264.232 397.281 263.498 397.18 262.712L399.145 261.637C399.426 262.899 399.317 264.133 398.818 265.34 398.319 266.547 397.374 267.53 395.985 268.291 394.864 268.904 393.728 269.192 392.579 269.154 391.43 269.116 390.356 268.775 389.357 268.132 388.359 267.488 387.518 266.542 386.836 265.295 386.162 264.063 385.817 262.852 385.801 261.66 385.785 260.469 386.074 259.376 386.67 258.384 387.265 257.391 388.14 256.579 389.292 255.948Z"
       fill-rule="evenodd"
       id="path2304" />
    <text
       fill="#000000"
       fill-opacity="0"
       font-family="Arial,Arial_MSFontService,sans-serif"
       font-size="14.0608"
       x="385.8"
       y="267.4"
       id="text2306">e</text>
    <path
       d="M404.027 250.523C403.056 250.995 402.336 251.708 401.87 252.665 401.404 253.621 401.389 254.694 401.825 255.882L409.405 252.207C408.83 251.145 408.045 250.476 407.05 250.198 406.055 249.92 405.048 250.029 404.027 250.523ZM403.24 248.775C404.406 248.209 405.541 247.984 406.647 248.098 407.753 248.212 408.74 248.588 409.61 249.227 410.48 249.865 411.154 250.678 411.633 251.666 411.72 251.844 411.802 252.025 411.88 252.207 411.959 252.389 412.053 252.593 412.163 252.82L402.566 257.473C403.063 258.373 403.648 259.034 404.323 259.457 404.999 259.88 405.698 260.106 406.422 260.134 407.147 260.163 407.833 260.021 408.481 259.707 409.323 259.298 409.933 258.762 410.311 258.099 410.69 257.435 410.847 256.708 410.785 255.919L412.801 254.941C413.019 256.215 412.849 257.443 412.291 258.624 411.734 259.804 410.742 260.74 409.317 261.431 408.167 261.989 407.019 262.221 405.873 262.126 404.727 262.032 403.671 261.639 402.705 260.947 401.74 260.255 400.947 259.269 400.326 257.99 399.714 256.726 399.429 255.499 399.471 254.308 399.514 253.117 399.857 252.041 400.501 251.078 401.144 250.116 402.057 249.348 403.24 248.775Z"
       fill-rule="evenodd"
       id="path2308" />
    <text
       fill="#000000"
       fill-opacity="0"
       font-family="Arial,Arial_MSFontService,sans-serif"
       font-size="14.0778"
       x="399.467"
       y="260.387"
       id="text2310">e</text>
    <path
       d="M418.195 242.014C419.653 241.394 421.005 241.343 422.251 241.86 423.497 242.377 424.511 243.555 425.292 245.394L428.354 252.6 426.266 253.487 423.3 246.504C422.209 243.936 420.603 243.103 418.483 244.004 417.422 244.454 416.704 245.214 416.327 246.283 415.95 247.353 416.064 248.6 416.67 250.025L419.383 256.411 417.295 257.298 412.059 244.972 413.948 244.17 415.012 246.329C415.078 245.381 415.39 244.526 415.945 243.761 416.501 242.997 417.25 242.415 418.195 242.014Z"
       fill-rule="evenodd"
       id="path2312" />
    <text
       fill="#000000"
       fill-opacity="0"
       font-family="Arial,Arial_MSFontService,sans-serif"
       font-size="15.7908"
       x="412.059"
       y="255.324"
       id="text2314">n</text>
    <path
       d="M432.884 238.299C431.87 238.671 431.083 239.309 430.524 240.214 429.964 241.12 429.842 242.185 430.158 243.412L438.067 240.51C437.601 239.397 436.887 238.652 435.924 238.277 434.962 237.901 433.949 237.908 432.884 238.299ZM432.275 236.481C433.491 236.034 434.644 235.923 435.733 236.147 436.821 236.371 437.766 236.843 438.568 237.566 439.37 238.288 439.96 239.164 440.338 240.195 440.406 240.381 440.47 240.568 440.53 240.757 440.59 240.946 440.663 241.159 440.75 241.396L430.737 245.068C431.141 246.013 431.658 246.729 432.288 247.217 432.917 247.706 433.591 248 434.308 248.101 435.026 248.202 435.723 248.129 436.399 247.881 437.278 247.558 437.938 247.086 438.381 246.463 438.824 245.841 439.053 245.133 439.069 244.341L441.173 243.57C441.263 244.86 440.972 246.064 440.299 247.183 439.626 248.302 438.546 249.135 437.059 249.68 435.859 250.12 434.694 250.236 433.563 250.028 432.432 249.82 431.421 249.323 430.529 248.538 429.637 247.754 428.946 246.694 428.456 245.359 427.973 244.041 427.812 242.791 427.973 241.61 428.134 240.43 428.583 239.393 429.319 238.499 430.056 237.606 431.041 236.933 432.275 236.481Z"
       fill-rule="evenodd"
       id="path2316" />
    <text
       fill="#000000"
       fill-opacity="0"
       font-family="Arial,Arial_MSFontService,sans-serif"
       font-size="14.0938"
       x="427.913"
       y="248.367"
       id="text2318">e</text>
    <path
       d="M448.189 231.111 448.915 233.373 448.324 233.563C447.57 233.805 446.918 234.161 446.369 234.63 445.82 235.099 445.459 235.711 445.286 236.466 445.112 237.222 445.204 238.156 445.562 239.27L447.624 245.697 445.465 246.39 441.372 233.639 443.326 233.012 444.29 235.396C444.415 234.43 444.8 233.569 445.446 232.814 446.092 232.058 447.006 231.491 448.189 231.111Z"
       fill-rule="evenodd"
       id="path2320" />
    <text
       fill="#000000"
       fill-opacity="0"
       font-family="Arial,Arial_MSFontService,sans-serif"
       font-size="15.2793"
       x="441.372"
       y="244.48"
       id="text2322">r</text>
    <path
       d="M453.595 240.96 455.848 240.295 455.283 246.683 453.781 247.126Z"
       fill-rule="evenodd"
       id="path2324" />
    <text
       fill="#000000"
       fill-opacity="0"
       font-family="Arial,Arial_MSFontService,sans-serif"
       font-size="6.83089"
       x="453.595"
       y="246.272"
       id="text2326">,</text>
    <path
       d="M469.589 233.013C468.292 233.319 467.43 233.759 467.001 234.332 466.572 234.904 466.436 235.524 466.593 236.189 466.755 236.873 467.134 237.361 467.73 237.655 468.326 237.949 469.08 237.988 469.991 237.773 470.832 237.575 471.503 237.185 472.004 236.605 472.505 236.024 472.83 235.346 472.98 234.571 473.13 233.796 473.114 233.023 472.932 232.252L472.926 232.226ZM467.942 225.801C469.764 225.371 471.249 225.533 472.398 226.288 473.548 227.044 474.313 228.227 474.693 229.839L476.585 237.853 474.614 238.319 473.931 236.011C473.736 236.834 473.346 237.587 472.758 238.271 472.171 238.956 471.281 239.438 470.09 239.72 469.004 239.976 468.058 240.005 467.253 239.807 466.448 239.608 465.798 239.244 465.303 238.713 464.808 238.183 464.475 237.559 464.306 236.84 463.991 235.509 464.258 234.364 465.104 233.406 465.951 232.448 467.25 231.762 469.002 231.349L472.523 230.517 472.486 230.36C472.217 229.221 471.715 228.429 470.981 227.982 470.247 227.536 469.381 227.431 468.382 227.667 467.524 227.869 466.834 228.258 466.314 228.834 465.793 229.41 465.551 230.129 465.588 230.989L463.328 231.523C463.192 230.556 463.324 229.684 463.723 228.905 464.121 228.127 464.692 227.469 465.435 226.934 466.178 226.398 467.013 226.02 467.942 225.801Z"
       fill-rule="evenodd"
       id="path2328" />
    <text
       fill="#000000"
       fill-opacity="0"
       font-family="Arial,Arial_MSFontService,sans-serif"
       font-size="14.3697"
       x="463.276"
       y="238.14"
       id="text2330">a</text>
    <path
       d="M483.859 222.487C485.417 222.2 486.748 222.444 487.852 223.22 488.956 223.996 489.689 225.366 490.051 227.331L491.47 235.031 489.24 235.442 487.864 227.981C487.359 225.237 485.973 224.074 483.707 224.492 482.574 224.7 481.707 225.286 481.107 226.248 480.506 227.209 480.346 228.451 480.627 229.974L481.885 236.798 479.654 237.209 477.227 224.039 479.245 223.667 479.813 226.006C480.084 225.095 480.574 224.328 481.283 223.703 481.991 223.078 482.85 222.673 483.859 222.487Z"
       fill-rule="evenodd"
       id="path2332" />
    <text
       fill="#000000"
       fill-opacity="0"
       font-family="Arial,Arial_MSFontService,sans-serif"
       font-size="14.8385"
       x="477.227"
       y="235.354"
       id="text2334">n</text>
    <path
       d="M499.321 222.076C498.447 222.19 497.693 222.501 497.06 223.01 496.428 223.519 495.968 224.173 495.682 224.972 495.395 225.772 495.317 226.671 495.447 227.671 495.577 228.671 495.883 229.52 496.364 230.22 496.845 230.92 497.456 231.435 498.198 231.765 498.94 232.095 499.748 232.203 500.623 232.09 501.515 231.974 502.278 231.661 502.91 231.153 503.543 230.644 504.003 229.99 504.289 229.19 504.575 228.391 504.654 227.491 504.524 226.491 504.394 225.492 504.088 224.642 503.607 223.942 503.126 223.242 502.514 222.727 501.773 222.397 501.031 222.067 500.214 221.96 499.321 222.076ZM502.962 213.843 505.211 213.551 507.716 232.829 505.681 233.093 505.182 230.926C504.837 231.624 504.296 232.284 503.56 232.906 502.824 233.528 501.85 233.918 500.636 234.076 499.315 234.247 498.12 234.094 497.05 233.616 495.981 233.138 495.105 232.408 494.424 231.425 493.743 230.443 493.315 229.282 493.141 227.944 492.967 226.605 493.089 225.377 493.506 224.261 493.924 223.145 494.585 222.224 495.489 221.499 496.393 220.773 497.514 220.323 498.853 220.149 499.942 220.008 500.935 220.106 501.832 220.443 502.729 220.78 503.461 221.32 504.03 222.063Z"
       fill-rule="evenodd"
       id="path2336" />
    <text
       fill="#000000"
       fill-opacity="0"
       font-family="Arial,Arial_MSFontService,sans-serif"
       font-size="20.5928"
       x="493.064"
       y="231.57"
       id="text2338">d</text>
    <path
       d="M524.145 219.843C523.246 219.889 522.466 220.141 521.805 220.599 521.143 221.056 520.634 221.672 520.277 222.448 519.921 223.223 519.768 224.114 519.819 225.12 519.871 226.127 520.114 226.998 520.548 227.733 520.982 228.467 521.551 229.029 522.256 229.416 522.961 229.804 523.763 229.974 524.661 229.928 525.56 229.882 526.34 229.631 527.002 229.173 527.663 228.716 528.173 228.099 528.529 227.324 528.886 226.549 529.039 225.658 528.987 224.651 528.936 223.645 528.693 222.774 528.259 222.039 527.825 221.304 527.255 220.743 526.551 220.356 525.846 219.968 525.044 219.797 524.145 219.843ZM516.849 212.512 519.114 212.396 519.536 220.647C519.935 219.978 520.52 219.362 521.294 218.8 522.067 218.238 523.074 217.925 524.314 217.861 525.644 217.793 526.82 218.039 527.84 218.6 528.859 219.161 529.671 219.957 530.273 220.99 530.876 222.022 531.212 223.213 531.281 224.561 531.35 225.909 531.137 227.123 530.643 228.203 530.148 229.282 529.417 230.149 528.451 230.802 527.484 231.455 526.335 231.816 525.005 231.884 523.908 231.94 522.922 231.766 522.045 231.36 521.168 230.954 520.484 230.358 519.993 229.572L519.892 231.822 517.843 231.926Z"
       fill-rule="evenodd"
       id="path2340" />
    <text
       fill="#000000"
       fill-opacity="0"
       font-family="Arial,Arial_MSFontService,sans-serif"
       font-size="19.5305"
       x="516.849"
       y="229.485"
       id="text2342">b</text>
    <path
       d="M540.455 219.402C539.375 219.401 538.416 219.728 537.578 220.384 536.741 221.04 536.258 221.998 536.131 223.258L544.555 223.268C544.502 222.062 544.089 221.116 543.316 220.431 542.543 219.746 541.589 219.403 540.455 219.402ZM540.511 217.485C541.807 217.486 542.927 217.78 543.872 218.366 544.816 218.952 545.54 219.723 546.043 220.677 546.545 221.632 546.796 222.658 546.795 223.756 546.795 223.954 546.79 224.152 546.781 224.35 546.772 224.548 546.767 224.773 546.766 225.025L536.102 225.013C536.154 226.039 536.392 226.89 536.814 227.565 537.236 228.241 537.767 228.75 538.405 229.092 539.044 229.435 539.723 229.607 540.443 229.608 541.379 229.609 542.162 229.394 542.793 228.963 543.423 228.531 543.883 227.947 544.172 227.209L546.413 227.212C546.051 228.453 545.362 229.483 544.344 230.301 543.326 231.119 542.025 231.527 540.441 231.525 539.163 231.523 538.029 231.229 537.04 230.643 536.051 230.057 535.273 229.242 534.707 228.197 534.141 227.152 533.859 225.919 533.861 224.497 533.863 223.093 534.143 221.865 534.702 220.813 535.262 219.76 536.041 218.942 537.041 218.358 538.04 217.774 539.197 217.483 540.511 217.485Z"
       fill-rule="evenodd"
       id="path2344" />
    <text
       fill="#000000"
       fill-opacity="0"
       font-family="Arial,Arial_MSFontService,sans-serif"
       font-size="14.0399"
       x="533.861"
       y="229.77"
       id="text2346">e</text>
    <path
       d="M551.889 214.82 553.859 214.905 553.72 218.115 557.659 218.284 557.576 220.2 553.638 220.03 553.32 227.394C553.284 228.239 553.43 228.818 553.759 229.129 554.088 229.44 554.684 229.615 555.547 229.652L556.95 229.712 556.866 231.655 554.816 231.566C553.593 231.514 552.644 231.175 551.968 230.552 551.292 229.928 550.988 228.843 551.054 227.296L551.372 219.932 549.052 219.832 549.134 217.917 551.454 218.017Z"
       fill-rule="evenodd"
       id="path2348" />
    <text
       fill="#000000"
       fill-opacity="0"
       font-family="Arial,Arial_MSFontService,sans-serif"
       font-size="16.8349"
       x="549.052"
       y="229.55"
       id="text2350">t</text>
    <path
       d="M562.678 215.412 564.643 215.564 564.396 218.767 568.326 219.071 568.179 220.982 564.248 220.679 563.681 228.028C563.615 228.871 563.742 229.454 564.06 229.777 564.378 230.099 564.968 230.294 565.829 230.36L567.229 230.468 567.079 232.406 565.034 232.248C563.813 232.154 562.876 231.784 562.222 231.138 561.568 230.491 561.3 229.396 561.419 227.853L561.987 220.504 559.672 220.325 559.82 218.414 562.135 218.593Z"
       fill-rule="evenodd"
       id="path2352" />
    <text
       fill="#000000"
       fill-opacity="0"
       font-family="Arial,Arial_MSFontService,sans-serif"
       font-size="16.9944"
       x="559.672"
       y="230.282"
       id="text2354">t</text>
    <path
       d="M577.299 221.651C576.227 221.522 575.236 221.734 574.327 222.287 573.417 222.84 572.825 223.734 572.55 224.971L580.915 225.972C581.005 224.768 580.706 223.781 580.019 223.01 579.331 222.238 578.425 221.785 577.299 221.651ZM577.58 219.754C578.867 219.908 579.945 220.331 580.814 221.025 581.682 221.718 582.31 222.568 582.697 223.575 583.084 224.582 583.213 225.631 583.082 226.721 583.059 226.918 583.031 227.114 582.998 227.309 582.966 227.505 582.934 227.728 582.904 227.978L572.315 226.71C572.247 227.735 572.382 228.608 572.722 229.328 573.062 230.049 573.529 230.617 574.122 231.032 574.716 231.448 575.371 231.699 576.085 231.784 577.015 231.895 577.818 231.774 578.495 231.42 579.172 231.066 579.697 230.54 580.071 229.841L582.296 230.108C581.791 231.298 580.985 232.239 579.877 232.932 578.77 233.624 577.43 233.876 575.858 233.688 574.589 233.536 573.497 233.11 572.584 232.412 571.671 231.713 570.994 230.812 570.556 229.708 570.117 228.604 569.982 227.346 570.151 225.934 570.318 224.54 570.741 223.353 571.42 222.374 572.099 221.395 572.97 220.674 574.031 220.212 575.093 219.75 576.276 219.597 577.58 219.754Z"
       fill-rule="evenodd"
       id="path2356" />
    <text
       fill="#000000"
       fill-opacity="0"
       font-family="Arial,Arial_MSFontService,sans-serif"
       font-size="14.0536"
       x="570.08"
       y="231.991"
       id="text2358">e</text>
    <path
       d="M594.183 222.185 593.804 224.531 593.191 224.432C592.409 224.305 591.667 224.326 590.965 224.496 590.263 224.665 589.663 225.046 589.166 225.641 588.669 226.235 588.327 227.109 588.14 228.264L587.062 234.928 584.824 234.566 586.961 221.346 588.987 221.673 588.764 224.235C589.314 223.431 590.048 222.838 590.966 222.458 591.885 222.078 592.957 221.987 594.183 222.185Z"
       fill-rule="evenodd"
       id="path2360" />
    <text
       fill="#000000"
       fill-opacity="0"
       font-family="Arial,Arial_MSFontService,sans-serif"
       font-size="13.5823"
       x="584.824"
       y="233.23"
       id="text2362">r</text>
    <path
       d="M610.092 225.442C611.636 225.795 612.847 226.497 613.724 227.547 614.601 228.596 615.026 229.829 614.997 231.244L612.734 230.727C612.743 229.88 612.456 229.154 611.874 228.55 611.292 227.946 610.545 227.54 609.633 227.331 608.896 227.163 608.16 227.188 607.427 227.408 606.693 227.628 606.041 228.061 605.469 228.705 604.896 229.35 604.486 230.216 604.237 231.304 603.988 232.392 603.982 233.351 604.217 234.18 604.452 235.009 604.851 235.687 605.414 236.213 605.977 236.738 606.627 237.085 607.364 237.254 608.276 237.463 609.126 237.421 609.912 237.131 610.699 236.84 611.274 236.302 611.638 235.517L613.902 236.035C613.338 237.291 612.426 238.209 611.167 238.788 609.908 239.368 608.507 239.482 606.963 239.129 605.717 238.844 604.663 238.303 603.802 237.506 602.941 236.709 602.343 235.732 602.008 234.575 601.672 233.418 601.661 232.155 601.974 230.787 602.287 229.418 602.846 228.286 603.651 227.39 604.456 226.494 605.419 225.874 606.541 225.53 607.663 225.187 608.846 225.157 610.092 225.442Z"
       fill-rule="evenodd"
       id="path2364" />
    <text
       fill="#000000"
       fill-opacity="0"
       font-family="Arial,Arial_MSFontService,sans-serif"
       font-size="14.0809"
       x="601.747"
       y="237.569"
       id="text2366">c</text>
    <path
       d="M624.778 231.22C624.033 231.009 623.289 230.995 622.545 231.177 621.801 231.359 621.127 231.757 620.523 232.371 619.918 232.986 619.464 233.83 619.159 234.904 618.855 235.977 618.799 236.934 618.991 237.774 619.183 238.615 619.543 239.306 620.072 239.849 620.601 240.392 621.23 240.766 621.957 240.973 622.702 241.184 623.446 241.198 624.19 241.016 624.933 240.834 625.608 240.436 626.212 239.822 626.817 239.207 627.271 238.363 627.576 237.29 627.88 236.216 627.94 235.26 627.757 234.422 627.574 233.585 627.213 232.893 626.675 232.348 626.138 231.802 625.505 231.427 624.778 231.22ZM625.308 229.35C626.52 229.694 627.533 230.28 628.345 231.109 629.158 231.938 629.702 232.939 629.978 234.112 630.253 235.284 630.197 236.555 629.81 237.923 629.422 239.291 628.798 240.401 627.94 241.252 627.081 242.103 626.084 242.667 624.948 242.943 623.813 243.22 622.639 243.187 621.427 242.843 620.214 242.499 619.202 241.913 618.389 241.084 617.577 240.255 617.033 239.254 616.757 238.081 616.481 236.909 616.537 235.638 616.925 234.27 617.313 232.902 617.936 231.793 618.795 230.941 619.654 230.09 620.651 229.526 621.786 229.25 622.922 228.973 624.096 229.006 625.308 229.35Z"
       fill-rule="evenodd"
       id="path2368" />
    <text
       fill="#000000"
       fill-opacity="0"
       font-family="Arial,Arial_MSFontService,sans-serif"
       font-size="14.064"
       x="616.585"
       y="241.371"
       id="text2370">o</text>
    <path
       d="M641.545 234.439C643.045 234.949 644.087 235.812 644.672 237.028 645.256 238.244 645.227 239.798 644.583 241.689L642.062 249.102 639.915 248.372 642.358 241.189C643.256 238.548 642.615 236.856 640.434 236.114 639.343 235.743 638.301 235.831 637.307 236.377 636.313 236.923 635.567 237.929 635.069 239.394L632.834 245.964 630.687 245.234 634.999 232.555 636.942 233.216 636.296 235.534C636.977 234.872 637.78 234.442 638.703 234.242 639.626 234.043 640.574 234.109 641.545 234.439Z"
       fill-rule="evenodd"
       id="path2372" />
    <text
       fill="#000000"
       fill-opacity="0"
       font-family="Arial,Arial_MSFontService,sans-serif"
       font-size="16.5474"
       x="630.687"
       y="247.034"
       id="text2374">n</text>
    <path
       d="M656.403 239.968C657.875 240.553 658.873 241.468 659.395 242.712 659.918 243.956 659.81 245.506 659.072 247.363L656.18 254.639 654.072 253.801 656.874 246.751C657.905 244.158 657.35 242.436 655.209 241.585 654.138 241.16 653.093 241.195 652.073 241.69 651.053 242.185 650.257 243.152 649.685 244.591L647.122 251.039 645.014 250.201 649.961 237.756 651.868 238.514 651.106 240.797C651.82 240.17 652.643 239.781 653.575 239.628 654.507 239.476 655.45 239.589 656.403 239.968Z"
       fill-rule="evenodd"
       id="path2376" />
    <text
       fill="#000000"
       fill-opacity="0"
       font-family="Arial,Arial_MSFontService,sans-serif"
       font-size="16.8828"
       x="645.014"
       y="252.529"
       id="text2378">n</text>
    <path
       d="M669.464 247.661C668.482 247.212 667.474 247.113 666.439 247.363 665.405 247.613 664.569 248.285 663.931 249.379L671.594 252.877C672.046 251.758 672.062 250.726 671.642 249.783 671.222 248.839 670.496 248.132 669.464 247.661ZM670.31 245.939C671.489 246.477 672.386 247.209 673.003 248.134 673.62 249.058 673.959 250.059 674.021 251.136 674.084 252.213 673.887 253.251 673.431 254.25 673.349 254.43 673.262 254.609 673.172 254.785 673.081 254.961 672.984 255.164 672.879 255.393L663.178 250.964C662.801 251.92 662.664 252.792 662.769 253.582 662.873 254.372 663.145 255.055 663.584 255.631 664.023 256.208 664.571 256.646 665.226 256.945 666.077 257.333 666.879 257.462 667.631 257.331 668.384 257.2 669.044 256.858 669.613 256.306L671.652 257.237C670.808 258.217 669.754 258.869 668.489 259.191 667.223 259.514 665.87 259.346 664.429 258.689 663.267 258.158 662.357 257.421 661.699 256.477 661.042 255.534 660.672 254.47 660.589 253.285 660.507 252.099 660.761 250.86 661.352 249.566 661.935 248.289 662.699 247.288 663.644 246.561 664.589 245.835 665.637 245.414 666.789 245.296 667.941 245.179 669.114 245.393 670.31 245.939Z"
       fill-rule="evenodd"
       id="path2380" />
    <text
       fill="#000000"
       fill-opacity="0"
       font-family="Arial,Arial_MSFontService,sans-serif"
       font-size="14.0853"
       x="660.574"
       y="257.59"
       id="text2382">e</text>
    <path
       d="M684.476 252.857C685.883 253.585 686.879 254.567 687.466 255.803 688.052 257.039 688.155 258.338 687.773 259.702L685.711 258.634C685.932 257.816 685.836 257.042 685.424 256.311 685.011 255.581 684.39 255.001 683.558 254.571 682.887 254.223 682.169 254.064 681.403 254.094 680.638 254.123 679.898 254.378 679.183 254.859 678.468 255.34 677.854 256.077 677.34 257.068 676.827 258.059 676.581 258.985 676.601 259.847 676.621 260.708 676.838 261.464 677.252 262.114 677.665 262.764 678.208 263.263 678.879 263.61 679.71 264.04 680.543 264.213 681.378 264.128 682.212 264.043 682.904 263.667 683.452 262.998L685.514 264.066C684.654 265.14 683.542 265.801 682.178 266.048 680.814 266.294 679.428 266.053 678.022 265.325 676.887 264.738 676.002 263.95 675.368 262.963 674.734 261.976 674.399 260.881 674.363 259.677 674.328 258.473 674.633 257.247 675.278 256 675.924 254.753 676.748 253.797 677.752 253.131 678.755 252.464 679.843 252.105 681.015 252.053 682.188 252.001 683.341 252.269 684.476 252.857Z"
       fill-rule="evenodd"
       id="path2384" />
    <text
       fill="#000000"
       fill-opacity="0"
       font-family="Arial,Arial_MSFontService,sans-serif"
       font-size="14.0941"
       x="674.361"
       y="264.379"
       id="text2386">c</text>
    <path
       d="M695.659 255.624 697.371 256.602 695.778 259.392 699.201 261.347 698.25 263.011 694.827 261.057 691.172 267.457C690.752 268.192 690.617 268.773 690.767 269.201 690.917 269.628 691.367 270.056 692.117 270.485L693.336 271.181 692.372 272.869 690.59 271.851C689.527 271.244 688.838 270.509 688.523 269.645 688.208 268.781 688.435 267.677 689.202 266.333L692.858 259.932 690.841 258.78 691.792 257.116 693.808 258.267Z"
       fill-rule="evenodd"
       id="path2388" />
    <text
       fill="#000000"
       fill-opacity="0"
       font-family="Arial,Arial_MSFontService,sans-serif"
       font-size="17.2446"
       x="688.386"
       y="270.713"
       id="text2390">t</text>
    <path
       d="M706.212 267.508C705.296 266.934 704.31 266.704 703.252 266.816 702.194 266.928 701.277 267.485 700.501 268.486L707.639 272.959C708.234 271.908 708.385 270.888 708.092 269.897 707.799 268.907 707.172 268.11 706.212 267.508ZM707.275 265.912C708.374 266.601 709.168 267.443 709.658 268.441 710.148 269.438 710.353 270.475 710.274 271.551 710.194 272.627 709.863 273.63 709.28 274.561 709.174 274.729 709.066 274.894 708.953 275.057 708.84 275.22 708.717 275.408 708.583 275.622L699.546 269.958C699.047 270.856 698.797 271.704 698.797 272.5 698.797 273.297 698.977 274.01 699.337 274.639 699.697 275.268 700.182 275.774 700.792 276.156 701.585 276.653 702.363 276.886 703.126 276.854 703.89 276.823 704.589 276.571 705.225 276.099L707.124 277.289C706.159 278.15 705.029 278.657 703.732 278.811 702.436 278.965 701.116 278.622 699.774 277.78 698.691 277.102 697.885 276.252 697.357 275.23 696.829 274.209 696.602 273.105 696.676 271.92 696.75 270.734 697.164 269.539 697.919 268.334 698.665 267.144 699.554 266.251 700.586 265.655 701.618 265.059 702.712 264.779 703.87 264.813 705.027 264.848 706.162 265.215 707.275 265.912Z"
       fill-rule="evenodd"
       id="path2392" />
    <text
       fill="#000000"
       fill-opacity="0"
       font-family="Arial,Arial_MSFontService,sans-serif"
       font-size="14.0364"
       x="696.662"
       y="277.092"
       id="text2394">e</text>
    <path
       d="M719.43 276.336C718.707 275.831 717.941 275.552 717.131 275.502 716.32 275.451 715.54 275.624 714.789 276.022 714.039 276.419 713.375 277.031 712.797 277.857 712.219 278.683 711.872 279.517 711.755 280.358 711.639 281.199 711.744 281.992 712.069 282.736 712.394 283.479 712.918 284.104 713.641 284.61 714.378 285.126 715.152 285.409 715.962 285.46 716.773 285.511 717.553 285.337 718.304 284.94 719.054 284.542 719.718 283.93 720.296 283.105 720.874 282.279 721.221 281.445 721.338 280.604 721.454 279.763 721.349 278.97 721.024 278.226 720.699 277.482 720.167 276.852 719.43 276.336ZM727.669 272.709 729.527 274.01 718.382 289.938 716.701 288.761 717.793 286.823C717.068 287.107 716.223 287.23 715.26 287.193 714.297 287.156 713.315 286.787 712.312 286.086 711.22 285.322 710.441 284.403 709.973 283.329 709.505 282.255 709.351 281.125 709.51 279.94 709.669 278.755 710.136 277.61 710.91 276.504 711.684 275.398 712.601 274.573 713.662 274.03 714.723 273.487 715.832 273.253 716.989 273.326 718.146 273.4 719.277 273.824 720.383 274.598 721.283 275.227 721.95 275.969 722.385 276.822 722.82 277.676 722.998 278.569 722.917 279.501Z"
       fill-rule="evenodd"
       id="path2396" />
    <text
       fill="#000000"
       fill-opacity="0"
       font-family="Arial,Arial_MSFontService,sans-serif"
       font-size="17.2282"
       x="709.45"
       y="287.784"
       id="text2398">d</text>
    <path
       d="M737.813 280.754 739.672 282.318 732.344 297.359 746.345 287.933 748.266 289.55 741.268 304.869 754.877 295.113 756.736 296.678 740.518 307.732 738.535 306.063 745.133 291.219 731.552 300.187 729.593 298.574Z"
       fill-rule="evenodd"
       id="path2400" />
    <text
       fill="#000000"
       fill-opacity="0"
       font-family="Arial,Arial_MSFontService,sans-serif"
       font-size="26.9778"
       x="729.593"
       y="304.359"
       id="text2402">W</text>
    <path
       d="M758.466 308.316C757.685 307.57 756.766 307.144 755.707 307.041 754.648 306.937 753.637 307.296 752.675 308.12L758.762 313.943C759.557 313.034 759.911 312.065 759.824 311.036 759.738 310.007 759.285 309.1 758.466 308.316ZM759.83 306.968C760.766 307.864 761.374 308.85 761.652 309.926 761.931 311.002 761.922 312.059 761.627 313.097 761.331 314.135 760.804 315.05 760.045 315.844 759.908 315.987 759.768 316.127 759.625 316.263 759.481 316.4 759.323 316.56 759.148 316.742L751.442 309.369C750.772 310.148 750.356 310.927 750.195 311.707 750.034 312.487 750.067 313.222 750.292 313.911 750.517 314.6 750.89 315.193 751.41 315.691 752.086 316.338 752.802 316.723 753.555 316.846 754.309 316.97 755.045 316.864 755.764 316.53L757.383 318.079C756.264 318.728 755.054 318.997 753.753 318.885 752.452 318.774 751.229 318.171 750.085 317.076 749.161 316.192 748.544 315.197 748.233 314.09 747.922 312.983 747.923 311.856 748.235 310.71 748.547 309.564 749.195 308.477 750.178 307.449 751.148 306.435 752.199 305.74 753.33 305.365 754.461 304.99 755.59 304.936 756.716 305.204 757.843 305.472 758.88 306.06 759.83 306.968Z"
       fill-rule="evenodd"
       id="path2404" />
    <text
       fill="#000000"
       fill-opacity="0"
       font-family="Arial,Arial_MSFontService,sans-serif"
       font-size="13.8732"
       x="748.001"
       y="317.176"
       id="text2406">e</text>
    <path
       d="M769.938 317.084C770.922 318.112 771.471 319.199 771.586 320.348 771.701 321.496 771.333 322.576 770.484 323.589L768.934 321.97C769.366 321.432 769.551 320.851 769.488 320.225 769.425 319.6 769.108 318.988 768.535 318.39 767.975 317.805 767.419 317.472 766.867 317.389 766.315 317.307 765.837 317.459 765.434 317.845 765.044 318.219 764.935 318.716 765.106 319.337 765.277 319.958 765.62 320.695 766.136 321.546 766.579 322.269 766.964 322.99 767.292 323.71 767.62 324.43 767.764 325.14 767.723 325.839 767.682 326.539 767.311 327.224 766.609 327.896 765.75 328.743 764.717 329.103 763.51 328.974 762.304 328.846 761.153 328.21 760.057 327.066 758.95 325.909 758.321 324.666 758.172 323.339 758.023 322.012 758.387 320.804 759.263 319.715L760.869 321.393C760.461 321.982 760.281 322.672 760.327 323.462 760.374 324.253 760.752 325.019 761.461 325.76 762.121 326.449 762.752 326.816 763.356 326.861 763.96 326.906 764.463 326.736 764.866 326.35 765.451 325.79 765.639 325.205 765.43 324.596 765.22 323.986 764.826 323.223 764.248 322.307 763.854 321.687 763.506 321.024 763.203 320.317 762.9 319.61 762.76 318.91 762.781 318.217 762.803 317.523 763.106 316.897 763.691 316.337 764.536 315.528 765.531 315.18 766.674 315.294 767.817 315.408 768.905 316.005 769.938 317.084Z"
       fill-rule="evenodd"
       id="path2408" />
    <text
       fill="#000000"
       fill-opacity="0"
       font-family="Arial,Arial_MSFontService,sans-serif"
       font-size="13.7267"
       x="758.14"
       y="327.284"
       id="text2410">s</text>
    <path
       d="M779.318 322.942 780.629 324.414 778.228 326.55 780.849 329.495 779.417 330.77 776.796 327.825 771.29 332.725C770.658 333.288 770.345 333.795 770.35 334.248 770.356 334.701 770.646 335.25 771.22 335.896L772.154 336.944 770.701 338.237 769.337 336.704C768.523 335.79 768.105 334.873 768.082 333.953 768.059 333.034 768.626 332.06 769.782 331.031L775.289 326.131 773.745 324.396 775.177 323.122 776.721 324.856Z"
       fill-rule="evenodd"
       id="path2412" />
    <text
       fill="#000000"
       fill-opacity="0"
       font-family="Arial,Arial_MSFontService,sans-serif"
       font-size="15.2947"
       x="768.081"
       y="336.325"
       id="text2414">t</text>
    <path
       d="M792.138 334.217 793.751 336.315 787.455 349.741 802.014 347.059 803.644 349.177 788.662 360.7 787.279 358.902 799.051 349.849 785.568 352.248 784.531 350.899 790.289 338.501 778.539 347.537 777.156 345.74Z"
       fill-rule="evenodd"
       id="path2416" />
    <text
       fill="#000000"
       fill-opacity="0"
       font-family="Arial,Arial_MSFontService,sans-serif"
       font-size="26.4825"
       x="777.156"
       y="357.389"
       id="text2418">M</text>
    <path
       d="M801.708 356.158 803.01 358.015 792.047 365.705 790.744 363.848ZM807.311 353.613C807.559 353.967 807.653 354.352 807.593 354.768 807.533 355.183 807.326 355.515 806.972 355.764 806.604 356.022 806.21 356.111 805.791 356.031 805.372 355.951 805.039 355.734 804.791 355.381 804.532 355.012 804.439 354.621 804.512 354.208 804.585 353.794 804.805 353.458 805.173 353.199 805.527 352.951 805.907 352.866 806.313 352.944 806.72 353.022 807.052 353.245 807.311 353.613Z"
       fill-rule="evenodd"
       id="path2420" />
    <text
       fill="#000000"
       fill-opacity="0"
       font-family="Arial,Arial_MSFontService,sans-serif"
       font-size="12.7889"
       x="790.744"
       y="364.106"
       id="text2422">i</text>
    <path
       d="M807.485 367.608C807.004 366.869 806.397 366.325 805.664 365.974 804.932 365.624 804.143 365.493 803.298 365.582 802.454 365.67 801.609 365.989 800.764 366.539 799.919 367.088 799.286 367.732 798.863 368.469 798.441 369.205 798.241 369.979 798.265 370.791 798.288 371.603 798.541 372.378 799.022 373.117 799.513 373.871 800.125 374.424 800.857 374.774 801.59 375.124 802.379 375.255 803.223 375.167 804.068 375.078 804.913 374.759 805.758 374.21 806.602 373.66 807.236 373.016 807.658 372.28 808.081 371.543 808.28 370.769 808.257 369.957 808.233 369.146 807.976 368.363 807.485 367.608ZM816.482 367.325 817.72 369.226 801.427 379.831 800.308 378.111 802.045 376.723C801.267 376.714 800.438 376.513 799.558 376.119 798.679 375.725 797.905 375.015 797.238 373.989 796.511 372.872 796.132 371.729 796.099 370.558 796.067 369.386 796.347 368.281 796.937 367.242 797.528 366.202 798.389 365.314 799.52 364.578 800.651 363.841 801.811 363.42 802.998 363.313 804.185 363.206 805.301 363.403 806.346 363.904 807.392 364.405 808.283 365.221 809.019 366.352 809.618 367.272 809.96 368.21 810.044 369.164 810.128 370.119 809.959 371.013 809.535 371.847Z"
       fill-rule="evenodd"
       id="path2424" />
    <text
       fill="#000000"
       fill-opacity="0"
       font-family="Arial,Arial_MSFontService,sans-serif"
       font-size="16.5464"
       x="796.097"
       y="377.763"
       id="text2426">d</text>
    <path
       d="M819.749 372.644 820.921 374.586 804.276 384.63 803.104 382.688Z"
       fill-rule="evenodd"
       id="path2428" />
    <text
       fill="#000000"
       fill-opacity="0"
       font-family="Arial,Arial_MSFontService,sans-serif"
       font-size="11.9854"
       x="803.104"
       y="383.131"
       id="text2430">l</text>
    <path
       d="M814.363 389.432C813.711 388.271 813.05 387.564 812.38 387.31 811.711 387.057 811.079 387.097 810.482 387.433 809.871 387.777 809.506 388.276 809.389 388.93 809.271 389.585 809.442 390.32 809.901 391.136 810.324 391.889 810.884 392.426 811.581 392.747 812.278 393.068 813.019 393.193 813.805 393.122 814.592 393.052 815.33 392.822 816.021 392.434L816.044 392.421ZM820.839 385.853C821.756 387.485 822.011 388.958 821.603 390.271 821.196 391.584 820.27 392.647 818.827 393.458L811.648 397.495 810.656 395.729 812.684 394.434C811.84 394.475 811.008 394.308 810.188 393.933 809.368 393.558 808.658 392.837 808.058 391.77 807.511 390.797 807.221 389.896 807.189 389.068 807.157 388.239 807.327 387.514 807.7 386.891 808.073 386.268 808.581 385.776 809.224 385.415 810.416 384.744 811.59 384.683 812.745 385.231 813.9 385.78 814.918 386.838 815.801 388.407L817.574 391.561 817.715 391.482C818.735 390.908 819.358 390.207 819.583 389.378 819.809 388.549 819.67 387.687 819.168 386.793 818.735 386.024 818.17 385.469 817.473 385.128 816.775 384.788 816.018 384.754 815.201 385.027L814.063 383.003C814.954 382.605 815.829 382.49 816.688 382.658 817.546 382.826 818.336 383.193 819.056 383.758 819.777 384.323 820.371 385.022 820.839 385.853Z"
       fill-rule="evenodd"
       id="path2432" />
    <text
       fill="#000000"
       fill-opacity="0"
       font-family="Arial,Arial_MSFontService,sans-serif"
       font-size="14.9111"
       x="807.185"
       y="395.631"
       id="text2434">a</text>
    <path
       d="M828.444 400.17C829.158 401.584 829.298 402.93 828.864 404.208 828.43 405.485 827.322 406.574 825.538 407.475L818.549 411.004 817.527 408.98 824.299 405.56C826.79 404.302 827.516 402.645 826.477 400.589 825.958 399.56 825.152 398.893 824.06 398.588 822.968 398.282 821.731 398.478 820.349 399.176L814.155 402.304 813.133 400.279 825.087 394.243 826.012 396.075 823.928 397.278C824.878 397.282 825.753 397.537 826.552 398.041 827.35 398.545 827.981 399.255 828.444 400.17Z"
       fill-rule="evenodd"
       id="path2436" />
    <text
       fill="#000000"
       fill-opacity="0"
       font-family="Arial,Arial_MSFontService,sans-serif"
       font-size="16.7616"
       x="813.133"
       y="408.909"
       id="text2438">n</text>
    <path
       d="M833.219 414.853C832.859 414.048 832.345 413.415 831.677 412.955 831.008 412.494 830.249 412.241 829.401 412.196 828.553 412.151 827.669 412.334 826.748 412.745 825.828 413.156 825.102 413.692 824.569 414.353 824.036 415.015 823.718 415.748 823.614 416.554 823.511 417.359 823.639 418.164 823.998 418.97 824.365 419.791 824.883 420.433 825.552 420.893 826.22 421.353 826.979 421.606 827.827 421.651 828.675 421.696 829.559 421.514 830.48 421.103 831.4 420.692 832.127 420.156 832.659 419.494 833.192 418.832 833.51 418.099 833.614 417.294 833.717 416.489 833.586 415.675 833.219 414.853ZM842.15 415.982 843.074 418.053 825.323 425.977 824.486 424.104 826.42 423.004C825.652 422.873 824.865 422.545 824.058 422.018 823.251 421.491 822.598 420.669 822.099 419.551 821.556 418.335 821.361 417.146 821.512 415.984 821.664 414.823 822.113 413.775 822.859 412.84 823.604 411.906 824.594 411.164 825.827 410.613 827.059 410.063 828.27 409.828 829.459 409.908 830.648 409.989 831.72 410.358 832.674 411.016 833.628 411.674 834.38 412.62 834.931 413.852 835.378 414.855 835.569 415.834 835.503 416.79 835.437 417.746 835.13 418.603 834.581 419.361Z"
       fill-rule="evenodd"
       id="path2440" />
    <text
       fill="#000000"
       fill-opacity="0"
       font-family="Arial,Arial_MSFontService,sans-serif"
       font-size="16.0842"
       x="821.463"
       y="423.967"
       id="text2442">d</text>
    <path
       d="M841.047 428.393C841.569 429.716 841.665 430.931 841.337 432.037 841.009 433.143 840.26 434.004 839.09 434.62L838.268 432.535C838.872 432.201 839.263 431.732 839.441 431.13 839.62 430.527 839.558 429.841 839.254 429.071 838.957 428.317 838.569 427.798 838.089 427.513 837.609 427.228 837.109 427.188 836.59 427.392 836.088 427.59 835.798 428.009 835.721 428.649 835.645 429.288 835.684 430.1 835.839 431.084 835.975 431.92 836.059 432.733 836.09 433.524 836.121 434.315 835.985 435.026 835.683 435.658 835.38 436.29 834.777 436.784 833.872 437.14 832.757 437.599 831.665 437.541 830.597 436.965 829.529 436.39 828.704 435.365 828.123 433.891 827.536 432.401 827.425 431.013 827.789 429.728 828.153 428.443 828.947 427.463 830.171 426.787L831.022 428.948C830.422 429.339 829.993 429.909 829.737 430.658 829.481 431.407 829.541 432.259 829.917 433.214 830.267 434.101 830.712 434.68 831.254 434.951 831.796 435.221 832.326 435.254 832.845 435.049 833.599 434.752 833.994 434.282 834.031 433.639 834.068 432.996 833.992 432.14 833.804 431.073 833.674 430.35 833.602 429.605 833.59 428.836 833.577 428.067 833.712 427.366 833.994 426.732 834.276 426.098 834.794 425.633 835.548 425.336 836.637 424.907 837.688 424.962 838.703 425.5 839.719 426.039 840.5 427.003 841.047 428.393Z"
       fill-rule="evenodd"
       id="path2444" />
    <text
       fill="#000000"
       fill-opacity="0"
       font-family="Arial,Arial_MSFontService,sans-serif"
       font-size="12.3945"
       x="827.58"
       y="435.896"
       id="text2446">s</text>
    <path
       d="M439.856 185.303C441.475 184.853 442.901 184.874 444.135 185.366 445.369 185.858 446.321 186.76 446.991 188.07L445.109 188.594C444.65 187.777 444.012 187.195 443.196 186.848 442.38 186.501 441.406 186.485 440.273 186.8 439.261 187.082 438.443 187.56 437.817 188.235 437.191 188.911 436.793 189.741 436.624 190.725 436.454 191.71 436.539 192.809 436.876 194.023 437.214 195.237 437.709 196.221 438.363 196.977 439.016 197.732 439.785 198.238 440.67 198.493 441.555 198.748 442.503 198.735 443.515 198.454 444.648 198.139 445.476 197.628 445.999 196.923 446.522 196.218 446.772 195.404 446.747 194.481L448.629 193.958C448.724 195.399 448.37 196.645 447.566 197.697 446.761 198.749 445.55 199.501 443.931 199.951 442.542 200.337 441.259 200.363 440.084 200.029 438.908 199.695 437.891 199.055 437.032 198.11 436.174 197.164 435.542 195.963 435.136 194.507 434.735 193.064 434.658 191.715 434.905 190.462 435.152 189.209 435.692 188.133 436.524 187.233 437.356 186.333 438.467 185.69 439.856 185.303Z"
       fill="#FFFFFF"
       fill-rule="evenodd"
       id="path2448" />
    <text
       fill="#000000"
       fill-opacity="0"
       font-family="Arial,Arial_MSFontService,sans-serif"
       font-size="15.2813"
       x="434.764"
       y="198.352"
       id="text2450">C</text>
    <path
       d="M448.942 183.148 450.659 182.741 453.731 195.674 460.391 194.092 460.717 195.461 452.34 197.451Z"
       fill="#FFFFFF"
       fill-rule="evenodd"
       id="path2452" />
    <text
       fill="#000000"
       fill-opacity="0"
       font-family="Arial,Arial_MSFontService,sans-serif"
       font-size="14.7097"
       x="448.942"
       y="195.612"
       id="text2454">L</text>
    <path
       d="M460.066 180.583 461.792 180.215 464.857 194.592 463.131 194.96Z"
       fill="#FFFFFF"
       fill-rule="evenodd"
       id="path2456" />
    <text
       fill="#000000"
       fill-opacity="0"
       font-family="Arial,Arial_MSFontService,sans-serif"
       font-size="14.7447"
       x="460.066"
       y="193.117"
       id="text2458">I</text>
    <path
       d="M465.315 179.413 467.341 179.05 474.355 188.206 477.718 177.193 479.765 176.827 482.354 191.297 480.618 191.608 478.583 180.239 475.41 190.406 474.108 190.639 467.61 182.223 469.641 193.572 467.904 193.883Z"
       fill="#FFFFFF"
       fill-rule="evenodd"
       id="path2460" />
    <text
       fill="#000000"
       fill-opacity="0"
       font-family="Arial,Arial_MSFontService,sans-serif"
       font-size="17.0558"
       x="465.315"
       y="191.751"
       id="text2462">M</text>
    <path
       d="M489.22 177.776 487.588 185.32 492.752 184.639ZM488.013 175.69 489.866 175.446 497.138 189.314 495.285 189.558 493.459 185.987 487.254 186.805 486.395 190.731 484.563 190.972Z"
       fill="#FFFFFF"
       fill-rule="evenodd"
       id="path2464" />
    <text
       fill="#000000"
       fill-opacity="0"
       font-family="Arial,Arial_MSFontService,sans-serif"
       font-size="15.5265"
       x="484.563"
       y="189.031"
       id="text2466">A</text>
    <path
       d="M497.118 174.541 507.614 173.554 507.749 174.997 503.38 175.408 504.62 188.601 502.864 188.766 501.623 175.573 497.254 175.984Z"
       fill="#FFFFFF"
       fill-rule="evenodd"
       id="path2468" />
    <text
       fill="#000000"
       fill-opacity="0"
       font-family="Arial,Arial_MSFontService,sans-serif"
       font-size="15.2115"
       x="497.118"
       y="186.864"
       id="text2470">T</text>
    <path
       d="M510.365 173.355 519.442 172.811 519.529 174.258 512.213 174.696 512.519 179.811 519.206 179.41 519.292 180.835 512.605 181.236 512.918 186.477 520.234 186.038 520.321 187.485 511.244 188.028Z"
       fill="#FFFFFF"
       fill-rule="evenodd"
       id="path2472" />
    <text
       fill="#000000"
       fill-opacity="0"
       font-family="Arial,Arial_MSFontService,sans-serif"
       font-size="15.2173"
       x="510.365"
       y="186.126"
       id="text2474">E</text>
    <path
       d="M530.449 173.966 530.5 179.72 533.356 179.695C534.49 179.684 535.314 179.404 535.827 178.853 536.34 178.303 536.593 177.601 536.585 176.747 536.578 175.879 536.316 175.191 535.8 174.685 535.285 174.179 534.446 173.931 533.284 173.941ZM528.672 172.491 533.418 172.449C534.566 172.438 535.505 172.619 536.237 172.991 536.968 173.362 537.512 173.875 537.868 174.53 538.223 175.185 538.405 175.911 538.412 176.709 538.42 177.633 538.179 178.469 537.689 179.215 537.198 179.961 536.43 180.493 535.382 180.811L538.652 187.103 536.573 187.121 533.537 181.079 533.411 181.08 530.513 181.106 530.567 187.175 528.803 187.19Z"
       fill="#FFFFFF"
       fill-rule="evenodd"
       id="path2476" />
    <text
       fill="#000000"
       fill-opacity="0"
       font-family="Arial,Arial_MSFontService,sans-serif"
       font-size="14.7421"
       x="528.672"
       y="185.348"
       id="text2478">R</text>
    <path
       d="M541.832 172.442 550.922 172.678 550.884 174.126 543.557 173.936 543.425 179.058 550.121 179.232 550.084 180.66 543.388 180.486 543.252 185.734 550.578 185.924 550.541 187.373 541.451 187.137Z"
       fill="#FFFFFF"
       fill-rule="evenodd"
       id="path2480" />
    <text
       fill="#000000"
       fill-opacity="0"
       font-family="Arial,Arial_MSFontService,sans-serif"
       font-size="14.9308"
       x="541.451"
       y="185.506"
       id="text2482">E</text>
    <path
       d="M558.765 172.842C559.701 172.898 560.504 173.122 561.175 173.513 561.846 173.905 562.354 174.419 562.702 175.057 563.049 175.695 563.206 176.406 563.172 177.19L561.328 177.078C561.352 176.673 561.272 176.265 561.086 175.854 560.901 175.443 560.602 175.099 560.191 174.821 559.78 174.544 559.253 174.386 558.611 174.347 557.815 174.285 557.149 174.448 556.614 174.837 556.078 175.225 555.788 175.79 555.744 176.53 555.706 177.159 555.855 177.652 556.191 178.009 556.527 178.366 557.01 178.672 557.639 178.928 558.269 179.183 558.995 179.476 559.816 179.806 560.5 180.1 561.111 180.431 561.65 180.8 562.188 181.17 562.599 181.629 562.881 182.179 563.164 182.729 563.28 183.416 563.23 184.241 563.188 184.94 562.966 185.589 562.565 186.189 562.164 186.789 561.585 187.262 560.828 187.609 560.071 187.956 559.14 188.096 558.036 188.03 556.96 187.964 556.036 187.712 555.263 187.273 554.49 186.833 553.908 186.251 553.517 185.526 553.126 184.801 552.958 183.978 553.014 183.055L554.859 183.167C554.824 183.74 554.925 184.275 555.161 184.774 555.398 185.272 555.762 185.68 556.255 185.997 556.748 186.314 557.371 186.496 558.126 186.541 559.118 186.601 559.901 186.41 560.475 185.968 561.049 185.526 561.357 184.948 561.4 184.236 561.436 183.649 561.338 183.169 561.108 182.798 560.878 182.426 560.557 182.116 560.144 181.866 559.731 181.617 559.254 181.392 558.712 181.191 558.17 180.99 557.605 180.766 557.017 180.52 555.909 180.061 555.1 179.524 554.59 178.911 554.08 178.299 553.853 177.524 553.91 176.588 553.943 175.804 554.167 175.12 554.581 174.535 554.995 173.95 555.558 173.507 556.271 173.206 556.983 172.906 557.814 172.784 558.765 172.842Z"
       fill="#FFFFFF"
       fill-rule="evenodd"
       id="path2484" />
    <text
       fill="#000000"
       fill-opacity="0"
       font-family="Arial,Arial_MSFontService,sans-serif"
       font-size="15.2177"
       x="553.004"
       y="186.143"
       id="text2486">S</text>
    <path
       d="M566.833 173.668 568.591 173.818 567.344 188.465 565.587 188.315Z"
       fill="#FFFFFF"
       fill-rule="evenodd"
       id="path2488" />
    <text
       fill="#000000"
       fill-opacity="0"
       font-family="Arial,Arial_MSFontService,sans-serif"
       font-size="14.7966"
       x="565.587"
       y="186.615"
       id="text2490">I</text>
    <path
       d="M572.073 174.117 573.827 174.307 572.396 187.523 579.202 188.26 579.051 189.659 570.491 188.732Z"
       fill="#FFFFFF"
       fill-rule="evenodd"
       id="path2492" />
    <text
       fill="#000000"
       fill-opacity="0"
       font-family="Arial,Arial_MSFontService,sans-serif"
       font-size="15.5415"
       x="570.491"
       y="187.716"
       id="text2494">L</text>
    <path
       d="M583.441 175.423 585.19 175.654 583.27 190.228 581.521 189.997Z"
       fill="#FFFFFF"
       fill-rule="evenodd"
       id="path2496" />
    <text
       fill="#000000"
       fill-opacity="0"
       font-family="Arial,Arial_MSFontService,sans-serif"
       font-size="14.8045"
       x="581.521"
       y="188.377"
       id="text2498">I</text>
    <path
       d="M588.652 176.108 597.636 177.513 597.412 178.945 590.171 177.812 589.379 182.875 595.997 183.91 595.777 185.321 589.158 184.285 588.347 189.472 595.588 190.605 595.364 192.037 586.38 190.631Z"
       fill="#FFFFFF"
       fill-rule="evenodd"
       id="path2500" />
    <text
       fill="#000000"
       fill-opacity="0"
       font-family="Arial,Arial_MSFontService,sans-serif"
       font-size="15.9288"
       x="586.38"
       y="190.046"
       id="text2502">E</text>
    <path
       d="M600.948 178.074 602.679 178.414 608.102 191.481 610.366 179.919 612.097 180.258 609.272 194.684 607.541 194.345 602.118 181.278 599.854 192.839 598.123 192.5Z"
       fill="#FFFFFF"
       fill-rule="evenodd"
       id="path2504" />
    <text
       fill="#000000"
       fill-opacity="0"
       font-family="Arial,Arial_MSFontService,sans-serif"
       font-size="16.6098"
       x="598.123"
       y="192.608"
       id="text2506">N</text>
    <path
       d="M622.121 182.319C623.754 182.712 624.99 183.424 625.829 184.454 626.668 185.484 627.062 186.735 627.01 188.206L625.111 187.748C625.106 186.811 624.832 185.992 624.288 185.293 623.744 184.593 622.9 184.105 621.757 183.829 620.736 183.583 619.788 183.603 618.912 183.889 618.037 184.175 617.286 184.707 616.659 185.485 616.033 186.263 615.572 187.264 615.277 188.489 614.982 189.714 614.936 190.816 615.139 191.793 615.343 192.771 615.769 193.587 616.418 194.24 617.067 194.893 617.902 195.343 618.923 195.589 620.066 195.864 621.038 195.821 621.838 195.46 622.638 195.098 623.252 194.508 623.679 193.689L625.578 194.147C624.961 195.452 624.045 196.369 622.831 196.898 621.616 197.426 620.192 197.493 618.559 197.1 617.157 196.762 616.024 196.161 615.159 195.298 614.294 194.434 613.717 193.38 613.426 192.137 613.135 190.893 613.167 189.536 613.521 188.066 613.872 186.61 614.46 185.394 615.285 184.419 616.111 183.445 617.106 182.766 618.271 182.385 619.435 182.003 620.719 181.981 622.121 182.319Z"
       fill="#FFFFFF"
       fill-rule="evenodd"
       id="path2508" />
    <text
       fill="#000000"
       fill-opacity="0"
       font-family="Arial,Arial_MSFontService,sans-serif"
       font-size="15.2709"
       x="613.229"
       y="195.443"
       id="text2510">C</text>
    <path
       d="M631.116 184.851 639.865 187.326 639.471 188.72 632.419 186.725 631.024 191.656 637.47 193.479 637.081 194.853 630.635 193.03 629.206 198.081 636.258 200.077 635.864 201.471 627.114 198.995Z"
       fill="#FFFFFF"
       fill-rule="evenodd"
       id="path2512" />
    <text
       fill="#000000"
       fill-opacity="0"
       font-family="Arial,Arial_MSFontService,sans-serif"
       font-size="16.6202"
       x="627.114"
       y="199.393"
       id="text2514">E</text>
    <path
       d="M433.651 288.903C434.516 288.54 435.335 288.386 436.11 288.44 436.884 288.495 437.568 288.731 438.162 289.15 438.755 289.569 439.21 290.137 439.526 290.855L437.822 291.57C437.665 291.196 437.413 290.866 437.065 290.579 436.716 290.292 436.297 290.116 435.806 290.048 435.314 289.981 434.772 290.073 434.178 290.322 433.437 290.618 432.912 291.058 432.603 291.644 432.295 292.229 432.284 292.863 432.571 293.547 432.815 294.128 433.167 294.504 433.626 294.676 434.085 294.848 434.654 294.909 435.332 294.86 436.009 294.81 436.79 294.752 437.673 294.685 438.416 294.647 439.11 294.674 439.757 294.767 440.403 294.86 440.975 295.091 441.471 295.459 441.967 295.828 442.375 296.393 442.695 297.154 442.966 297.8 443.054 298.48 442.96 299.196 442.866 299.911 442.555 300.592 442.029 301.237 441.503 301.883 440.731 302.421 439.711 302.849 438.717 303.266 437.776 303.448 436.889 303.396 436.001 303.343 435.222 303.078 434.551 302.601 433.879 302.124 433.365 301.459 433.007 300.607L434.711 299.892C434.933 300.421 435.261 300.857 435.693 301.199 436.125 301.541 436.632 301.746 437.215 301.813 437.797 301.88 438.437 301.767 439.134 301.474 440.05 301.089 440.668 300.572 440.987 299.921 441.306 299.271 441.328 298.617 441.051 297.958 440.824 297.416 440.525 297.029 440.154 296.798 439.783 296.566 439.358 296.43 438.878 296.389 438.397 296.347 437.869 296.356 437.294 296.416 436.72 296.475 436.114 296.524 435.478 296.563 434.28 296.641 433.317 296.518 432.589 296.193 431.861 295.869 431.315 295.274 430.952 294.41 430.635 293.692 430.534 292.979 430.646 292.272 430.759 291.564 431.069 290.918 431.575 290.333 432.081 289.748 432.773 289.272 433.651 288.903Z"
       fill="#FFFFFF"
       fill-rule="evenodd"
       id="path2516" />
    <text
       fill="#000000"
       fill-opacity="0"
       font-family="Arial,Arial_MSFontService,sans-serif"
       font-size="14.975"
       x="430.602"
       y="301.533"
       id="text2518">S</text>
    <path
       d="M448.331 284.908C447.315 285.268 446.501 285.812 445.891 286.541 445.28 287.27 444.91 288.132 444.78 289.129 444.65 290.125 444.795 291.217 445.216 292.405 445.637 293.593 446.212 294.536 446.942 295.236 447.673 295.935 448.505 296.376 449.438 296.558 450.371 296.739 451.346 296.65 452.362 296.291 453.378 295.931 454.192 295.386 454.802 294.658 455.413 293.929 455.782 293.063 455.91 292.06 456.037 291.057 455.891 289.962 455.47 288.774 455.049 287.586 454.475 286.646 453.747 285.953 453.019 285.261 452.188 284.823 451.255 284.641 450.322 284.459 449.347 284.548 448.331 284.908ZM447.805 283.424C449.178 282.938 450.483 282.817 451.721 283.062 452.958 283.307 454.051 283.866 455 284.741 455.948 285.616 456.672 286.759 457.172 288.171 457.672 289.583 457.83 290.931 457.646 292.214 457.462 293.497 456.965 294.62 456.155 295.582 455.344 296.545 454.253 297.269 452.881 297.755 451.521 298.237 450.224 298.358 448.989 298.12 447.753 297.882 446.657 297.323 445.7 296.444 444.742 295.566 444.014 294.42 443.514 293.008 443.014 291.596 442.86 290.25 443.053 288.972 443.246 287.693 443.747 286.569 444.555 285.599 445.363 284.63 446.446 283.905 447.805 283.424Z"
       fill="#FFFFFF"
       fill-rule="evenodd"
       id="path2520" />
    <text
       fill="#000000"
       fill-opacity="0"
       font-family="Arial,Arial_MSFontService,sans-serif"
       font-size="15.2997"
       x="442.973"
       y="296.326"
       id="text2522">O</text>
    <path
       d="M464.161 278.215C465.777 277.755 467.204 277.768 468.44 278.253 469.677 278.738 470.635 279.634 471.312 280.94L469.433 281.475C468.969 280.661 468.328 280.082 467.51 279.74 466.692 279.398 465.718 279.388 464.586 279.709 463.576 279.997 462.761 280.48 462.139 281.159 461.517 281.838 461.124 282.67 460.96 283.655 460.797 284.641 460.887 285.739 461.232 286.951 461.576 288.163 462.078 289.145 462.735 289.897 463.393 290.649 464.165 291.15 465.051 291.4 465.938 291.65 466.886 291.631 467.896 291.344 469.027 291.022 469.852 290.507 470.371 289.799 470.89 289.091 471.135 288.276 471.105 287.352L472.984 286.818C473.088 288.259 472.741 289.507 471.942 290.564 471.144 291.621 469.937 292.379 468.321 292.839 466.934 293.233 465.652 293.267 464.474 292.939 463.297 292.612 462.276 291.978 461.411 291.038 460.547 290.097 459.908 288.9 459.495 287.445 459.085 286.005 459 284.657 459.24 283.402 459.48 282.148 460.013 281.068 460.84 280.164 461.667 279.259 462.774 278.609 464.161 278.215Z"
       fill="#FFFFFF"
       fill-rule="evenodd"
       id="path2524" />
    <text
       fill="#000000"
       fill-opacity="0"
       font-family="Arial,Arial_MSFontService,sans-serif"
       font-size="15.2827"
       x="459.107"
       y="291.252"
       id="text2526">C</text>
    <path
       d="M473.268 276.069 474.983 275.655 478.432 289.944 476.718 290.358Z"
       fill="#FFFFFF"
       fill-rule="evenodd"
       id="path2528" />
    <text
       fill="#000000"
       fill-opacity="0"
       font-family="Arial,Arial_MSFontService,sans-serif"
       font-size="14.7035"
       x="473.268"
       y="288.52"
       id="text2530">I</text>
    <path
       d="M484.282 275.888 483.166 283.526 488.271 282.496ZM482.936 273.889 484.768 273.519 492.965 286.862 491.133 287.232 489.068 283.792 482.934 285.029 482.343 289.005 480.532 289.37Z"
       fill="#FFFFFF"
       fill-rule="evenodd"
       id="path2532" />
    <text
       fill="#000000"
       fill-opacity="0"
       font-family="Arial,Arial_MSFontService,sans-serif"
       font-size="15.8507"
       x="480.532"
       y="287.389"
       id="text2534">A</text>
    <path
       d="M493.003 271.99 494.747 271.728 496.722 284.874 503.492 283.857 503.701 285.249 495.186 286.527Z"
       fill="#FFFFFF"
       fill-rule="evenodd"
       id="path2536" />
    <text
       fill="#000000"
       fill-opacity="0"
       font-family="Arial,Arial_MSFontService,sans-serif"
       font-size="14.799"
       x="493.003"
       y="284.677"
       id="text2538">L</text>
    <path
       d="M510.434 269.69 519.349 268.951 519.469 270.395 512.311 270.988 512.738 276.137 518.828 275.632 518.946 277.055 512.856 277.56 513.406 284.194 511.648 284.34Z"
       fill="#FFFFFF"
       fill-rule="evenodd"
       id="path2540" />
    <text
       fill="#000000"
       fill-opacity="0"
       font-family="Arial,Arial_MSFontService,sans-serif"
       font-size="15.3886"
       x="510.434"
       y="282.416"
       id="text2542">F</text>
    <path
       d="M529.086 269.866C528.008 269.896 527.067 270.164 526.262 270.67 525.456 271.176 524.839 271.883 524.409 272.791 523.98 273.699 523.783 274.783 523.818 276.043 523.853 277.302 524.111 278.377 524.591 279.267 525.072 280.157 525.728 280.832 526.56 281.292 527.392 281.751 528.347 281.966 529.425 281.936 530.502 281.906 531.444 281.638 532.249 281.132 533.054 280.626 533.671 279.915 534.101 279 534.53 278.084 534.727 276.997 534.692 275.737 534.656 274.478 534.399 273.407 533.919 272.524 533.439 271.641 532.783 270.97 531.95 270.51 531.118 270.05 530.163 269.835 529.086 269.866ZM529.041 268.291C530.497 268.25 531.776 268.537 532.879 269.15 533.981 269.763 534.849 270.632 535.483 271.755 536.117 272.879 536.455 274.189 536.497 275.687 536.539 277.184 536.275 278.515 535.706 279.68 535.136 280.844 534.318 281.76 533.251 282.427 532.185 283.094 530.924 283.448 529.468 283.489 528.027 283.53 526.755 283.247 525.652 282.641 524.55 282.034 523.678 281.166 523.037 280.035 522.396 278.905 522.055 277.591 522.013 276.094 521.971 274.596 522.238 273.269 522.815 272.111 523.391 270.953 524.213 270.037 525.28 269.363 526.346 268.689 527.6 268.332 529.041 268.291Z"
       fill="#FFFFFF"
       fill-rule="evenodd"
       id="path2544" />
    <text
       fill="#000000"
       fill-opacity="0"
       font-family="Arial,Arial_MSFontService,sans-serif"
       font-size="15.2057"
       x="522.008"
       y="281.592"
       id="text2546">O</text>
    <path
       d="M539.695 268.392 541.458 268.448 541.164 277.746C541.119 279.174 541.429 280.22 542.094 280.885 542.76 281.551 543.645 281.901 544.75 281.936 545.856 281.971 546.755 281.677 547.447 281.054 548.139 280.432 548.507 279.407 548.552 277.98L548.846 268.681 550.609 268.737 550.316 278.014C550.275 279.316 549.996 280.378 549.48 281.203 548.964 282.027 548.286 282.625 547.448 282.998 546.61 283.371 545.68 283.541 544.659 283.509 543.651 283.477 542.744 283.248 541.938 282.824 541.132 282.399 540.498 281.759 540.035 280.904 539.571 280.049 539.36 278.971 539.401 277.67Z"
       fill="#FFFFFF"
       fill-rule="evenodd"
       id="path2548" />
    <text
       fill="#000000"
       fill-opacity="0"
       font-family="Arial,Arial_MSFontService,sans-serif"
       font-size="15.1201"
       x="539.396"
       y="281.622"
       id="text2550">U</text>
    <path
       d="M554.462 268.954 556.219 269.108 562.993 281.528 564.022 269.792 565.779 269.946 564.495 284.59 562.738 284.436 555.964 272.016 554.935 283.752 553.177 283.598Z"
       fill="#FFFFFF"
       fill-rule="evenodd"
       id="path2552" />
    <text
       fill="#000000"
       fill-opacity="0"
       font-family="Arial,Arial_MSFontService,sans-serif"
       font-size="15.6364"
       x="553.177"
       y="282.636"
       id="text2554">N</text>
    <path
       d="M571.258 272.109 569.554 283.745 572.234 284.138C573.647 284.345 574.807 284.277 575.713 283.936 576.619 283.595 577.315 283.018 577.802 282.205 578.289 281.392 578.62 280.389 578.794 279.198 578.973 277.979 578.946 276.907 578.713 275.982 578.481 275.056 577.98 274.297 577.211 273.703 576.442 273.109 575.351 272.709 573.938 272.502ZM569.725 270.399 574.193 271.053C576.755 271.429 578.547 272.356 579.569 273.836 580.59 275.315 580.935 277.191 580.602 279.463 580.275 281.693 579.411 283.367 578.009 284.485 576.608 285.602 574.625 285.974 572.063 285.598L567.595 284.944Z"
       fill="#FFFFFF"
       fill-rule="evenodd"
       id="path2556" />
    <text
       fill="#000000"
       fill-opacity="0"
       font-family="Arial,Arial_MSFontService,sans-serif"
       font-size="15.3406"
       x="567.595"
       y="283.822"
       id="text2558">D</text>
    <path
       d="M589.89 276.029 585.877 282.623 590.978 283.671ZM589.433 273.663 591.264 274.039 593.592 289.525 591.761 289.148 591.205 285.175 585.075 283.916 582.978 287.344 581.167 286.972Z"
       fill="#FFFFFF"
       fill-rule="evenodd"
       id="path2560" />
    <text
       fill="#000000"
       fill-opacity="0"
       font-family="Arial,Arial_MSFontService,sans-serif"
       font-size="15.8615"
       x="581.167"
       y="287.542"
       id="text2562">A</text>
    <path
       d="M598.541 275.61 608.744 278.263 608.379 279.665 604.131 278.561 600.797 291.386 599.09 290.942 602.424 278.117 598.176 277.013Z"
       fill="#FFFFFF"
       fill-rule="evenodd"
       id="path2564" />
    <text
       fill="#000000"
       fill-opacity="0"
       font-family="Arial,Arial_MSFontService,sans-serif"
       font-size="15.7752"
       x="598.176"
       y="289.414"
       id="text2566">T</text>
    <path
       d="M611.398 279.074 613.089 279.575 608.915 293.669 607.224 293.169Z"
       fill="#FFFFFF"
       fill-rule="evenodd"
       id="path2568" />
    <text
       fill="#000000"
       fill-opacity="0"
       font-family="Arial,Arial_MSFontService,sans-serif"
       font-size="14.5958"
       x="607.224"
       y="291.845"
       id="text2570">I</text>
    <path
       d="M622.569 284.009C621.549 283.659 620.573 283.579 619.642 283.77 618.711 283.961 617.884 284.406 617.163 285.106 616.441 285.805 615.876 286.751 615.467 287.943 615.058 289.134 614.922 290.231 615.059 291.233 615.196 292.235 615.573 293.097 616.191 293.82 616.809 294.543 617.627 295.079 618.647 295.429 619.667 295.779 620.642 295.859 621.574 295.668 622.505 295.477 623.333 295.029 624.056 294.322 624.78 293.616 625.346 292.667 625.755 291.475 626.165 290.284 626.299 289.19 626.16 288.195 626.021 287.2 625.642 286.341 625.025 285.618 624.407 284.895 623.588 284.359 622.569 284.009ZM623.08 282.519C624.457 282.992 625.554 283.709 626.371 284.671 627.188 285.632 627.696 286.75 627.895 288.025 628.094 289.299 627.95 290.645 627.463 292.062 626.977 293.479 626.263 294.632 625.32 295.523 624.378 296.413 623.291 296.983 622.057 297.233 620.824 297.483 619.519 297.372 618.142 296.899 616.778 296.431 615.687 295.719 614.868 294.764 614.048 293.809 613.537 292.69 613.334 291.407 613.131 290.123 613.272 288.773 613.759 287.356 614.245 285.939 614.962 284.79 615.908 283.909 616.855 283.027 617.946 282.458 619.181 282.202 620.417 281.945 621.716 282.051 623.08 282.519Z"
       fill="#FFFFFF"
       fill-rule="evenodd"
       id="path2572" />
    <text
       fill="#000000"
       fill-opacity="0"
       font-family="Arial,Arial_MSFontService,sans-serif"
       font-size="15.2975"
       x="613.244"
       y="295.451"
       id="text2574">O</text>
    <path
       d="M633.058 286.369 634.688 287.044 637.419 300.925 641.925 290.04 643.555 290.715 637.932 304.297 636.302 303.622 633.572 289.741 629.065 300.626 627.435 299.951Z"
       fill="#FFFFFF"
       fill-rule="evenodd"
       id="path2576" />
    <text
       fill="#000000"
       fill-opacity="0"
       font-family="Arial,Arial_MSFontService,sans-serif"
       font-size="17.9279"
       x="627.435"
       y="302.056"
       id="text2578">N</text>
  </g>
</svg>
